<?xml version="1.0" encoding="utf-8"?><svg viewBox="0 0 640 512" xmlns="http://www.w3.org/2000/svg" xmlns:xlink="http://www.w3.org/1999/xlink"><style>:root>svg{display:none}:root>svg:target{display:block}</style><svg viewBox="0 0 448 512" id="angle-down-solid" xmlns="http://www.w3.org/2000/svg"><!--! Font Awesome Pro 6.2.0 by @fontawesome - https://fontawesome.com License - https://fontawesome.com/license (Commercial License) Copyright 2022 Fonticons, Inc.--><path d="M201.4 374.6c12.5 12.5 32.8 12.5 45.3 0l160-160c12.5-12.5 12.5-32.8 0-45.3s-32.8-12.5-45.3 0L224 306.7 86.6 169.4c-12.5-12.5-32.8-12.5-45.3 0s-12.5 32.8 0 45.3l160 160z"/></svg><svg viewBox="0 0 320 512" id="angle-left-solid" xmlns="http://www.w3.org/2000/svg"><!--! Font Awesome Pro 6.2.0 by @fontawesome - https://fontawesome.com License - https://fontawesome.com/license (Commercial License) Copyright 2022 Fonticons, Inc.--><path d="M41.4 233.4c-12.5 12.5-12.5 32.8 0 45.3l160 160c12.5 12.5 32.8 12.5 45.3 0s12.5-32.8 0-45.3L109.3 256l137.3-137.4c12.5-12.5 12.5-32.8 0-45.3s-32.8-12.5-45.3 0l-160 160z"/></svg><svg viewBox="0 0 320 512" id="angle-right-solid" xmlns="http://www.w3.org/2000/svg"><!--! Font Awesome Pro 6.2.0 by @fontawesome - https://fontawesome.com License - https://fontawesome.com/license (Commercial License) Copyright 2022 Fonticons, Inc.--><path d="M278.6 233.4c12.5 12.5 12.5 32.8 0 45.3l-160 160c-12.5 12.5-32.8 12.5-45.3 0s-12.5-32.8 0-45.3L210.7 256 73.4 118.6c-12.5-12.5-12.5-32.8 0-45.3s32.8-12.5 45.3 0l160 160z"/></svg><svg viewBox="0 0 576 512" id="arrow-right-arrow-left-solid" xmlns="http://www.w3.org/2000/svg"><!--! Font Awesome Pro 6.2.0 by @fontawesome - https://fontawesome.com License - https://fontawesome.com/license (Commercial License) Copyright 2022 Fonticons, Inc.--><path d="M422.6 278.6c-12.5 12.5-32.8 12.5-45.3 0s-12.5-32.8 0-45.3l57.4-57.3H64c-17.7 0-32-14.3-32-32s14.3-32 32-32h370.7l-57.3-57.4c-12.5-12.5-12.5-32.8 0-45.3s32.8-12.5 45.3 0l112 112c12.5 12.5 12.5 32.8 0 45.3l-112 112zm-269.3 224-112-112c-12.5-12.5-12.5-32.8 0-45.3l112-112c12.5-12.5 32.8-12.5 45.3 0s12.5 32.8 0 45.3L141.3 336H512c17.7 0 32 14.3 32 32s-14.3 32-32 32H141.3l57.4 57.4c12.5 12.5 12.5 32.8 0 45.3s-32.8 12.5-45.3 0z"/></svg><svg viewBox="0 0 512 512" id="bath-solid" xmlns="http://www.w3.org/2000/svg"><!--! Font Awesome Pro 6.2.0 by @fontawesome - https://fontawesome.com License - https://fontawesome.com/license (Commercial License) Copyright 2022 Fonticons, Inc.--><path d="M96 77.3C96 70 101.9 64 109.3 64c3.5 0 6.9 1.4 9.4 3.9l14.9 14.9c-3.6 9-5.6 18.9-5.6 29.2 0 19.9 7.2 38 19.2 52-5.3 9.2-4 21.1 3.8 29 9.4 9.4 24.6 9.4 33.9 0L289 89c9.4-9.4 9.4-24.6 0-33.9-7.9-7.9-19.8-9.1-29-3.8C246 39.2 227.9 32 208 32c-10.3 0-20.2 2-29.2 5.5l-14.9-14.9C149.4 8.1 129.7 0 109.3 0 66.6 0 32 34.6 32 77.3V256c-17.7 0-32 14.3-32 32s14.3 32 32 32h448c17.7 0 32-14.3 32-32s-14.3-32-32-32H96V77.3zM32 352v16c0 28.4 12.4 54 32 71.6V480c0 17.7 14.3 32 32 32s32-14.3 32-32v-16h256v16c0 17.7 14.3 32 32 32s32-14.3 32-32v-40.4c19.6-17.6 32-43.1 32-71.6v-16H32z"/></svg><svg viewBox="0 0 640 512" id="bed-solid" xmlns="http://www.w3.org/2000/svg"><!--! Font Awesome Pro 6.2.0 by @fontawesome - https://fontawesome.com License - https://fontawesome.com/license (Commercial License) Copyright 2022 Fonticons, Inc.--><path d="M32 32c17.7 0 32 14.3 32 32v256h224V160c0-17.7 14.3-32 32-32h224c53 0 96 43 96 96v224c0 17.7-14.3 32-32 32s-32-14.3-32-32v-32H64v32c0 17.7-14.3 32-32 32S0 465.7 0 448V64c0-17.7 14.3-32 32-32zm144 256c-44.2 0-80-35.8-80-80s35.8-80 80-80 80 35.8 80 80-35.8 80-80 80z"/></svg><svg viewBox="0 0 384 512" id="bolt-lightning-solid" xmlns="http://www.w3.org/2000/svg"><!--! Font Awesome Pro 6.2.0 by @fontawesome - https://fontawesome.com License - https://fontawesome.com/license (Commercial License) Copyright 2022 Fonticons, Inc.--><path d="M0 256 28.5 28c2-16 15.6-28 31.8-28h168.6c15 0 27.1 12.1 27.1 27.1 0 3.2-.6 6.5-1.7 9.5L208 160h139.3c20.2 0 36.7 16.4 36.7 36.7 0 7.4-2.2 14.6-6.4 20.7l-192.2 281c-5.9 8.6-15.6 13.7-25.9 13.7h-2.9c-15.7 0-28.5-12.8-28.5-28.5 0-2.3.3-4.6.9-6.9L176 288H32c-17.7 0-32-14.3-32-32z"/></svg><svg viewBox="0 0 448 512" id="calendar-days-solid" xmlns="http://www.w3.org/2000/svg"><!--! Font Awesome Pro 6.2.0 by @fontawesome - https://fontawesome.com License - https://fontawesome.com/license (Commercial License) Copyright 2022 Fonticons, Inc.--><path d="M128 0c17.7 0 32 14.3 32 32v32h128V32c0-17.7 14.3-32 32-32s32 14.3 32 32v32h48c26.5 0 48 21.5 48 48v48H0v-48c0-26.5 21.5-48 48-48h48V32c0-17.7 14.3-32 32-32zM0 192h448v272c0 26.5-21.5 48-48 48H48c-26.5 0-48-21.5-48-48V192zm64 80v32c0 8.8 7.2 16 16 16h32c8.8 0 16-7.2 16-16v-32c0-8.8-7.2-16-16-16H80c-8.8 0-16 7.2-16 16zm128 0v32c0 8.8 7.2 16 16 16h32c8.8 0 16-7.2 16-16v-32c0-8.8-7.2-16-16-16h-32c-8.8 0-16 7.2-16 16zm144-16c-8.8 0-16 7.2-16 16v32c0 8.8 7.2 16 16 16h32c8.8 0 16-7.2 16-16v-32c0-8.8-7.2-16-16-16h-32zM64 400v32c0 8.8 7.2 16 16 16h32c8.8 0 16-7.2 16-16v-32c0-8.8-7.2-16-16-16H80c-8.8 0-16 7.2-16 16zm144-16c-8.8 0-16 7.2-16 16v32c0 8.8 7.2 16 16 16h32c8.8 0 16-7.2 16-16v-32c0-8.8-7.2-16-16-16h-32zm112 16v32c0 8.8 7.2 16 16 16h32c8.8 0 16-7.2 16-16v-32c0-8.8-7.2-16-16-16h-32c-8.8 0-16 7.2-16 16z"/></svg><svg viewBox="0 0 512 512" id="car-solid" xmlns="http://www.w3.org/2000/svg"><!--! Font Awesome Pro 6.2.0 by @fontawesome - https://fontawesome.com License - https://fontawesome.com/license (Commercial License) Copyright 2022 Fonticons, Inc.--><path d="M135.2 117.4 109.1 192h293.8l-26.1-74.6c-4.5-12.8-16.6-21.4-30.2-21.4H165.4c-13.6 0-25.7 8.6-30.2 21.4zm-95.6 79.4L74.8 96.3C88.3 57.8 124.6 32 165.4 32h181.2c40.8 0 77.1 25.8 90.6 64.3l35.2 100.5c23.2 9.6 39.6 32.5 39.6 59.2v192c0 17.7-14.3 32-32 32h-32c-17.7 0-32-14.3-32-32v-48H96v48c0 17.7-14.3 32-32 32H32c-17.7 0-32-14.3-32-32V256c0-26.7 16.4-49.6 39.6-59.2zM128 288c0-17.7-14.3-32-32-32s-32 14.3-32 32 14.3 32 32 32 32-14.3 32-32zm288 32c17.7 0 32-14.3 32-32s-14.3-32-32-32-32 14.3-32 32 14.3 32 32 32z"/></svg><svg viewBox="0 0 512 512" id="circle-check-regular" xmlns="http://www.w3.org/2000/svg"><!--! Font Awesome Pro 6.2.0 by @fontawesome - https://fontawesome.com License - https://fontawesome.com/license (Commercial License) Copyright 2022 Fonticons, Inc.--><path d="M243.8 339.8c-10.9 10.9-28.7 10.9-39.6 0l-64-64c-10.9-10.9-10.9-28.7 0-39.6 10.9-10.9 28.7-10.9 39.6 0l44.2 44.2 108.2-108.2c10.9-10.9 28.7-10.9 39.6 0 10.9 10.9 10.9 28.7 0 39.6l-128 128zM512 256c0 141.4-114.6 256-256 256S0 397.4 0 256 114.6 0 256 0s256 114.6 256 256zM256 48C141.1 48 48 141.1 48 256s93.1 208 208 208 208-93.1 208-208S370.9 48 256 48z"/></svg><svg viewBox="0 0 512 512" id="circle-dot-regular" xmlns="http://www.w3.org/2000/svg"><!--! Font Awesome Pro 6.2.0 by @fontawesome - https://fontawesome.com License - https://fontawesome.com/license (Commercial License) Copyright 2022 Fonticons, Inc.--><path d="M160 256c0-53.9 42.1-96 96-96 53 0 96 42.1 96 96 0 53-43 96-96 96-53.9 0-96-43-96-96zm352 0c0 141.4-114.6 256-256 256S0 397.4 0 256 114.6 0 256 0s256 114.6 256 256zM256 48C141.1 48 48 141.1 48 256s93.1 208 208 208 208-93.1 208-208S370.9 48 256 48z"/></svg><svg viewBox="0 0 512 512" id="clock-regular" xmlns="http://www.w3.org/2000/svg"><!--! Font Awesome Pro 6.2.0 by @fontawesome - https://fontawesome.com License - https://fontawesome.com/license (Commercial License) Copyright 2022 Fonticons, Inc.--><path d="M232 120c0-13.3 10.7-24 24-24s24 10.7 24 24v123.2l85.3 56.8c11 7.4 14 22.3 5.8 33.3-6.5 11-21.4 14-32.4 5.8l-96-64c-6.7-3.6-10.7-11.1-10.7-20V120zM256 0c141.4 0 256 114.6 256 256S397.4 512 256 512 0 397.4 0 256 114.6 0 256 0zM48 256c0 114.9 93.1 208 208 208s208-93.1 208-208S370.9 48 256 48 48 141.1 48 256z"/></svg><svg viewBox="0 0 512 512" id="comment-regular" xmlns="http://www.w3.org/2000/svg"><!--! Font Awesome Pro 6.2.0 by @fontawesome - https://fontawesome.com License - https://fontawesome.com/license (Commercial License) Copyright 2022 Fonticons, Inc.--><path d="M256 32C114.6 32 .027 125.1.027 240c0 47.63 19.91 91.25 52.91 126.2-14.88 39.5-45.87 72.88-46.37 73.25-6.625 7-8.375 17.25-4.625 26C5.818 474.2 14.38 480 24 480c61.5 0 109.1-25.75 139.1-46.25 28 9.05 60.2 14.25 92.9 14.25 141.4 0 255.1-93.13 255.1-208S397.4 32 256 32zm.1 368c-26.75 0-53.12-4.125-78.38-12.12l-22.75-7.125-19.5 13.75c-14.25 10.12-33.88 21.38-57.5 29 7.375-12.12 14.37-25.75 19.88-40.25l10.62-28-20.62-21.87C69.82 314.1 48.07 282.2 48.07 240c0-88.25 93.25-160 208-160s208 71.75 208 160S370.8 400 256.1 400z"/></svg><svg viewBox="0 0 320 512" id="facebook-f" xmlns="http://www.w3.org/2000/svg"><!--! Font Awesome Pro 6.2.0 by @fontawesome - https://fontawesome.com License - https://fontawesome.com/license (Commercial License) Copyright 2022 Fonticons, Inc.--><path d="m279.14 288 14.22-92.66h-88.91v-60.13c0-25.35 12.42-50.06 52.24-50.06h40.42V6.26S260.43 0 225.36 0c-73.22 0-121.08 44.38-121.08 124.72v70.62H22.89V288h81.39v224h100.17V288z"/></svg><svg viewBox="0 0 24 16" id="flag" xmlns="http://www.w3.org/2000/svg"><defs><path id="apa" d="M0 .026h23.953V16H0z"/><path id="apc" d="M0 16h24V0H0z"/></defs><g fill="none" fill-rule="evenodd"><mask id="apb" fill="#fff"><use xlink:href="#apa"/></mask><path fill="#F5F5F5" d="M23.54 16H.413A.417.417 0 0 1 0 15.58V.447c0-.233.185-.42.413-.42H23.54c.228 0 .413.187.413.42V15.58c0 .232-.185.42-.413.42" mask="url(#apb)"/><path fill="#FF4B55" d="M24 1H0V.342C0 .153.185 0 .414 0h23.172c.229 0 .414.153.414.342V1z"/><mask id="apd" fill="#fff"><use xlink:href="#apc"/></mask><path fill="#FF4B55" d="M0 6h24V5H0zm0-2h24V3H0zm24 5H.414C.185 9 0 8.847 0 8.658V8h24v1zM0 13h24v-1H0zm23.586 3H.414C.185 16 0 15.847 0 15.658V15h24v.658c0 .189-.185.342-.414.342M0 11h24v-1H0z" mask="url(#apd)"/><path fill="#41479B" d="M10.593 0H.407C.182 0 0 .197 0 .44v8.12c0 .243.182.44.407.44h10.186c.225 0 .407-.197.407-.44V.44c0-.243-.182-.44-.407-.44" mask="url(#apd)"/><path fill="#F5F5F5" d="m1.54 1.03.1.315.318.003c.04 0 .058.055.025.08l-.255.197.095.317c.013.04-.032.074-.065.05L1.5 1.798l-.258.192c-.033.025-.078-.008-.065-.05l.095-.316-.255-.197c-.033-.025-.016-.08.025-.08l.317-.003.1-.314a.042.042 0 0 1 .081 0" mask="url(#apd)"/><path fill="#F5F5F5" d="m1.54 2.03.1.315.318.003c.04 0 .058.055.025.08l-.255.197.095.317c.013.04-.032.074-.065.05L1.5 2.798l-.258.192c-.033.025-.078-.008-.065-.05l.095-.316-.255-.197c-.033-.025-.016-.08.025-.08l.317-.003.1-.314a.042.042 0 0 1 .081 0m0 2 .1.315.318.003c.04 0 .058.055.025.08l-.255.197.095.317c.013.04-.032.074-.065.05L1.5 4.798l-.258.192c-.033.025-.078-.008-.065-.05l.095-.316-.255-.197c-.033-.025-.016-.08.025-.08l.317-.003.1-.314a.042.042 0 0 1 .081 0" mask="url(#apd)"/><path fill="#F5F5F5" d="m1.54 5.03.1.315.318.003c.04 0 .058.055.025.08l-.255.197.095.317c.013.04-.032.074-.065.05L1.5 5.798l-.258.192c-.033.025-.078-.008-.065-.05l.095-.316-.255-.197c-.033-.025-.016-.08.025-.08l.317-.003.1-.314a.042.042 0 0 1 .081 0m0 2 .1.315.318.003c.04 0 .058.055.025.08l-.255.197.095.317c.013.04-.032.074-.065.05L1.5 7.798l-.258.192c-.033.025-.078-.008-.065-.05l.095-.316-.255-.197c-.033-.025-.016-.08.025-.08l.317-.003.1-.314a.042.042 0 0 1 .081 0m1-5 .1.315.318.003c.04 0 .058.055.025.08l-.255.197.095.317c.013.04-.032.074-.065.05L2.5 2.798l-.258.192c-.033.025-.078-.008-.065-.05l.095-.316-.255-.197c-.033-.025-.016-.08.025-.08l.317-.003.1-.314a.042.042 0 0 1 .081 0" mask="url(#apd)"/><path fill="#F5F5F5" d="m2.54 3.03.1.315.318.003c.04 0 .058.055.025.08l-.255.197.095.317c.013.04-.032.074-.065.05L2.5 3.798l-.258.192c-.033.025-.078-.008-.065-.05l.095-.316-.255-.197c-.033-.025-.016-.08.025-.08l.317-.003.1-.314a.042.042 0 0 1 .081 0" mask="url(#apd)"/><path fill="#F5F5F5" d="m2.54 4.03.1.315.318.003c.04 0 .058.055.025.08l-.255.197.095.317c.013.04-.032.074-.065.05L2.5 4.798l-.258.192c-.033.025-.078-.008-.065-.05l.095-.316-.255-.197c-.033-.025-.016-.08.025-.08l.317-.003.1-.314a.042.042 0 0 1 .081 0m0 2 .1.315.318.003c.04 0 .058.055.025.08l-.255.197.095.317c.013.04-.032.074-.065.05L2.5 6.798l-.258.192c-.033.025-.078-.008-.065-.05l.095-.316-.255-.197c-.033-.025-.016-.08.025-.08l.317-.003.1-.314a.042.042 0 0 1 .081 0m1-5 .1.315.318.003c.04 0 .058.055.025.08l-.255.197.095.317c.013.04-.032.074-.065.05L3.5 1.798l-.258.192c-.033.025-.078-.008-.065-.05l.095-.316-.255-.197c-.033-.025-.016-.08.025-.08l.317-.003.1-.314a.042.042 0 0 1 .081 0" mask="url(#apd)"/><path fill="#F5F5F5" d="m3.54 2.03.1.315.318.003c.04 0 .058.055.025.08l-.255.197.095.317c.013.04-.032.074-.065.05L3.5 2.798l-.258.192c-.033.025-.078-.008-.065-.05l.095-.316-.255-.197c-.033-.025-.016-.08.025-.08l.317-.003.1-.314a.042.042 0 0 1 .081 0m0 2 .1.315.318.003c.04 0 .058.055.025.08l-.255.197.095.317c.013.04-.032.074-.065.05L3.5 4.798l-.258.192c-.033.025-.078-.008-.065-.05l.095-.316-.255-.197c-.033-.025-.016-.08.025-.08l.317-.003.1-.314a.042.042 0 0 1 .081 0" mask="url(#apd)"/><path fill="#F5F5F5" d="m3.54 5.03.1.315.318.003c.04 0 .058.055.025.08l-.255.197.095.317c.013.04-.032.074-.065.05L3.5 5.798l-.258.192c-.033.025-.078-.008-.065-.05l.095-.316-.255-.197c-.033-.025-.016-.08.025-.08l.317-.003.1-.314a.042.042 0 0 1 .081 0m0 2 .1.315.318.003c.04 0 .058.055.025.08l-.255.197.095.317c.013.04-.032.074-.065.05L3.5 7.798l-.258.192c-.033.025-.078-.008-.065-.05l.095-.316-.255-.197c-.033-.025-.016-.08.025-.08l.317-.003.1-.314a.042.042 0 0 1 .081 0m1-5 .1.315.318.003c.04 0 .058.055.025.08l-.255.197.095.317c.013.04-.032.074-.065.05L4.5 2.798l-.258.192c-.033.025-.078-.008-.065-.05l.095-.316-.255-.197c-.033-.025-.016-.08.025-.08l.317-.003.1-.314a.042.042 0 0 1 .081 0" mask="url(#apd)"/><path fill="#F5F5F5" d="m4.54 3.03.1.315.318.003c.04 0 .058.055.025.08l-.255.197.095.317c.013.04-.032.074-.065.05L4.5 3.798l-.258.192c-.033.025-.078-.008-.065-.05l.095-.316-.255-.197c-.033-.025-.016-.08.025-.08l.317-.003.1-.314a.042.042 0 0 1 .081 0" mask="url(#apd)"/><path fill="#F5F5F5" d="m4.54 4.03.1.315.318.003c.04 0 .058.055.025.08l-.255.197.095.317c.013.04-.032.074-.065.05L4.5 4.798l-.258.192c-.033.025-.078-.008-.065-.05l.095-.316-.255-.197c-.033-.025-.016-.08.025-.08l.317-.003.1-.314a.042.042 0 0 1 .081 0m0 2 .1.315.318.003c.04 0 .058.055.025.08l-.255.197.095.317c.013.04-.032.074-.065.05L4.5 6.798l-.258.192c-.033.025-.078-.008-.065-.05l.095-.316-.255-.197c-.033-.025-.016-.08.025-.08l.317-.003.1-.314a.042.042 0 0 1 .081 0m1-5 .1.315.318.003c.04 0 .058.055.025.08l-.255.197.095.317c.013.04-.032.074-.065.05L5.5 1.798l-.258.192c-.033.025-.078-.008-.065-.05l.095-.316-.255-.197c-.033-.025-.016-.08.025-.08l.317-.003.1-.314a.042.042 0 0 1 .081 0" mask="url(#apd)"/><path fill="#F5F5F5" d="m5.54 2.03.1.315.318.003c.04 0 .058.055.025.08l-.255.197.095.317c.013.04-.032.074-.065.05L5.5 2.798l-.258.192c-.033.025-.078-.008-.065-.05l.095-.316-.255-.197c-.033-.025-.016-.08.025-.08l.317-.003.1-.314a.042.042 0 0 1 .081 0m0 2 .1.315.318.003c.04 0 .058.055.025.08l-.255.197.095.317c.013.04-.032.074-.065.05L5.5 4.798l-.258.192c-.033.025-.078-.008-.065-.05l.095-.316-.255-.197c-.033-.025-.016-.08.025-.08l.317-.003.1-.314a.042.042 0 0 1 .081 0" mask="url(#apd)"/><path fill="#F5F5F5" d="m5.54 5.03.1.315.318.003c.04 0 .058.055.025.08l-.255.197.095.317c.013.04-.032.074-.065.05L5.5 5.798l-.258.192c-.033.025-.078-.008-.065-.05l.095-.316-.255-.197c-.033-.025-.016-.08.025-.08l.317-.003.1-.314a.042.042 0 0 1 .081 0m0 2 .1.315.318.003c.04 0 .058.055.025.08l-.255.197.095.317c.013.04-.032.074-.065.05L5.5 7.798l-.258.192c-.033.025-.078-.008-.065-.05l.095-.316-.255-.197c-.033-.025-.016-.08.025-.08l.317-.003.1-.314a.042.042 0 0 1 .081 0m1-5 .1.315.318.003c.04 0 .058.055.025.08l-.255.197.095.317c.013.04-.032.074-.065.05L6.5 2.798l-.258.192c-.033.025-.078-.008-.065-.05l.095-.316-.255-.197c-.033-.025-.016-.08.025-.08l.317-.003.1-.314a.042.042 0 0 1 .081 0" mask="url(#apd)"/><path fill="#F5F5F5" d="m6.54 3.03.1.315.318.003c.04 0 .058.055.025.08l-.255.197.095.317c.013.04-.032.074-.065.05L6.5 3.798l-.258.192c-.033.025-.078-.008-.065-.05l.095-.316-.255-.197c-.033-.025-.016-.08.025-.08l.317-.003.1-.314a.042.042 0 0 1 .081 0" mask="url(#apd)"/><path fill="#F5F5F5" d="m6.54 4.03.1.315.318.003c.04 0 .058.055.025.08l-.255.197.095.317c.013.04-.032.074-.065.05L6.5 4.798l-.258.192c-.033.025-.078-.008-.065-.05l.095-.316-.255-.197c-.033-.025-.016-.08.025-.08l.317-.003.1-.314a.042.042 0 0 1 .081 0m0 2 .1.315.318.003c.04 0 .058.055.025.08l-.255.197.095.317c.013.04-.032.074-.065.05L6.5 6.798l-.258.192c-.033.025-.078-.008-.065-.05l.095-.316-.255-.197c-.033-.025-.016-.08.025-.08l.317-.003.1-.314a.042.042 0 0 1 .081 0m1-5 .1.315.318.003c.04 0 .058.055.025.08l-.255.197.095.317c.013.04-.032.074-.065.05L7.5 1.798l-.258.192c-.033.025-.078-.008-.065-.05l.095-.316-.255-.197c-.033-.025-.016-.08.025-.08l.317-.003.1-.314a.042.042 0 0 1 .081 0" mask="url(#apd)"/><path fill="#F5F5F5" d="m7.54 2.03.1.315.318.003c.04 0 .058.055.025.08l-.255.197.095.317c.013.04-.032.074-.065.05L7.5 2.798l-.258.192c-.033.025-.078-.008-.065-.05l.095-.316-.255-.197c-.033-.025-.016-.08.025-.08l.317-.003.1-.314a.042.042 0 0 1 .081 0m0 2 .1.315.318.003c.04 0 .058.055.025.08l-.255.197.095.317c.013.04-.032.074-.065.05L7.5 4.798l-.258.192c-.033.025-.078-.008-.065-.05l.095-.316-.255-.197c-.033-.025-.016-.08.025-.08l.317-.003.1-.314a.042.042 0 0 1 .081 0" mask="url(#apd)"/><path fill="#F5F5F5" d="m7.54 5.03.1.315.318.003c.04 0 .058.055.025.08l-.255.197.095.317c.013.04-.032.074-.065.05L7.5 5.798l-.258.192c-.033.025-.078-.008-.065-.05l.095-.316-.255-.197c-.033-.025-.016-.08.025-.08l.317-.003.1-.314a.042.042 0 0 1 .081 0m0 2 .1.315.318.003c.04 0 .058.055.025.08l-.255.197.095.317c.013.04-.032.074-.065.05L7.5 7.798l-.258.192c-.033.025-.078-.008-.065-.05l.095-.316-.255-.197c-.033-.025-.016-.08.025-.08l.317-.003.1-.314a.042.042 0 0 1 .081 0m1-5 .1.315.318.003c.04 0 .058.055.025.08l-.255.197.095.317c.013.04-.032.074-.065.05L8.5 2.798l-.258.192c-.033.025-.078-.008-.065-.05l.095-.316-.255-.197c-.033-.025-.016-.08.025-.08l.317-.003.1-.314a.042.042 0 0 1 .081 0" mask="url(#apd)"/><path fill="#F5F5F5" d="m8.54 3.03.1.315.318.003c.04 0 .058.055.025.08l-.255.197.095.317c.013.04-.032.074-.065.05L8.5 3.798l-.258.192c-.033.025-.078-.008-.065-.05l.095-.316-.255-.197c-.033-.025-.016-.08.025-.08l.317-.003.1-.314a.042.042 0 0 1 .081 0" mask="url(#apd)"/><path fill="#F5F5F5" d="m8.54 4.03.1.315.318.003c.04 0 .058.055.025.08l-.255.197.095.317c.013.04-.032.074-.065.05L8.5 4.798l-.258.192c-.033.025-.078-.008-.065-.05l.095-.316-.255-.197c-.033-.025-.016-.08.025-.08l.317-.003.1-.314a.042.042 0 0 1 .081 0m0 2 .1.315.318.003c.04 0 .058.055.025.08l-.255.197.095.317c.013.04-.032.074-.065.05L8.5 6.798l-.258.192c-.033.025-.078-.008-.065-.05l.095-.316-.255-.197c-.033-.025-.016-.08.025-.08l.317-.003.1-.314a.042.042 0 0 1 .081 0m1-5 .1.315.318.003c.04 0 .058.055.025.08l-.255.197.095.317c.013.04-.032.074-.065.05L9.5 1.798l-.258.192c-.033.025-.078-.008-.065-.05l.095-.316-.255-.197c-.033-.025-.016-.08.025-.08l.317-.003.1-.314a.042.042 0 0 1 .081 0" mask="url(#apd)"/><path fill="#F5F5F5" d="m9.54 2.03.1.315.318.003c.04 0 .058.055.025.08l-.255.197.095.317c.013.04-.032.074-.065.05L9.5 2.798l-.258.192c-.033.025-.078-.008-.065-.05l.095-.316-.255-.197c-.033-.025-.016-.08.025-.08l.317-.003.1-.314a.042.042 0 0 1 .081 0m0 2 .1.315.318.003c.04 0 .058.055.025.08l-.255.197.095.317c.013.04-.032.074-.065.05L9.5 4.798l-.258.192c-.033.025-.078-.008-.065-.05l.095-.316-.255-.197c-.033-.025-.016-.08.025-.08l.317-.003.1-.314a.042.042 0 0 1 .081 0" mask="url(#apd)"/><path fill="#F5F5F5" d="m9.54 5.03.1.315.318.003c.04 0 .058.055.025.08l-.255.197.095.317c.013.04-.032.074-.065.05L9.5 5.798l-.258.192c-.033.025-.078-.008-.065-.05l.095-.316-.255-.197c-.033-.025-.016-.08.025-.08l.317-.003.1-.314a.042.042 0 0 1 .081 0m0 2 .1.315.318.003c.04 0 .058.055.025.08l-.255.197.095.317c.013.04-.032.074-.065.05L9.5 7.798l-.258.192c-.033.025-.078-.008-.065-.05l.095-.316-.255-.197c-.033-.025-.016-.08.025-.08l.317-.003.1-.314a.042.042 0 0 1 .081 0" mask="url(#apd)"/></g></svg><svg viewBox="0 0 512 512" id="flag-usa-solid" xmlns="http://www.w3.org/2000/svg"><!--! Font Awesome Pro 6.2.0 by @fontawesome - https://fontawesome.com License - https://fontawesome.com/license (Commercial License) Copyright 2022 Fonticons, Inc.--><path d="M63 23.9C59.4 10.1 46.9 0 32 0 14.3 0 0 14.3 0 32v448c0 17.7 14.3 32 32 32s32-14.3 32-32v-99.9c2-.8 4.8-1.8 8.2-3 8-2.8 19.4-6.6 32.6-10.4C131.9 359 164.5 352 192 352c26.3 0 46 6.4 70 14.4l1 .3c23.8 7.9 51.9 17.3 89 17.3 36.8 0 72.5-9.1 98.1-17.6 13-4.3 23.8-8.7 31.5-11.9 3.8-1.6 6.9-3 9-4 1.1-.5 1.9-.9 2.5-1.2l.7-.4.2-.1h.1l-14.3-28.6 14.3 28.6c10.8-5.4 17.7-16.5 17.7-28.6v-31.1c-2.2.8-5 1.8-8.2 3-8.8 3.1-21.1 7.2-35.5 11.3-28.3 8.1-66 16.6-100.1 16.6-34.1 0-63.9-8.5-91.4-16.4l-.8-.2c-28.3-8.1-54.4-15.4-83.8-15.4-29.7 0-61.9 7.5-87.3 15.3-12.6 3.9-23.2 7.7-30.7 10.6-3.7 1.4-6.7 2.6-8.6 3.5l-1.4.6v-34.5c7.9-3 18.7-6.9 31.3-10.8 26.6-8.2 62.4-16.7 96.7-16.7 34.3 0 64.2 8.5 91.8 16.4l.7.2c28.3 8.1 54.2 15.4 83.5 15.4 29.6 0 63.9-7.5 91.5-15.4 13.6-3.9 25.4-7.8 33.6-10.7 4.1-1.5 7.4-2.7 9.6-3.5 1.1-.4 2-.7 2.5-1l.6-.2.1-.1 5.9-2.4v-61.6c-2.2.8-5 1.8-8.2 3-8.8 3.1-21.1 7.2-35.5 11.3-28.3 8.1-66 16.6-100.1 16.6-34.1 0-63.9-8.5-91.4-16.4l-.8-.2c-28.3-8.1-54.4-15.4-83.8-15.4-29.7 0-61.9 7.5-87.3 15.3-12.6 3.9-23.2 7.7-30.7 10.6-3.7 1.4-6.7 2.6-8.6 3.5l-1.4.6v-34.5c7.9-3 18.7-6.9 31.3-10.8 26.6-8.2 62.4-16.7 96.7-16.7 34.3 0 64.2 8.5 91.8 16.4l.7.2c28.3 8.1 54.2 15.4 83.5 15.4 29.6 0 63.9-7.5 91.5-15.4 13.6-3.9 25.4-7.8 33.6-10.7 4.1-1.5 7.4-2.7 9.6-3.5 1.1-.4 2-.7 2.5-1l.6-.2.1-.1 5.9-2.4V97.1c-2.2.8-5 1.8-8.2 3-8.8 3.1-21.1 7.2-35.5 11.3-28.3 8.1-66 16.6-100.1 16.6-34.1 0-63.9-8.5-91.4-16.4l-.8-.2c-6.7-1.9-13.2-3.8-19.7-5.5V72.8c9.6 2.4 18.8 5 27.8 7.6l.7.2C312.8 88.7 338.7 96 368 96c29.6 0 63.9-7.5 91.5-15.4 13.6-3.9 25.4-7.8 33.6-10.7 4.1-1.5 7.4-2.7 9.6-3.5 1.1-.4 2-.7 2.5-1l.6-.2.1-.1 5.9-2.4V32c0-11.4-6.1-21.9-15.9-27.7s-22-5.8-31.9-.2l-.2.1c-.3.2-.7.4-1.4.8-1.3.7-3.4 1.8-6.2 3.1-5.5 2.6-13.6 6.2-23.4 9.8-20 7.3-46.2 14.1-73 14.1-26.7 0-50.6-6.6-79.1-14.8l-1.3-.4C252.3 9.1 220.5 0 184 0c-36.7 0-74.2 9-101.4 17.4-7.2 2.2-13.8 4.4-19.6 6.5zM208 48c0 8.8-7.2 16-16 16s-16-7.2-16-16 7.2-16 16-16 16 7.2 16 16zm-64 8c0 8.8-7.2 16-16 16s-16-7.2-16-16 7.2-16 16-16 16 7.2 16 16zm48 72c-8.8 0-16-7.2-16-16s7.2-16 16-16 16 7.2 16 16-7.2 16-16 16zm-48-8c0 8.8-7.2 16-16 16s-16-7.2-16-16 7.2-16 16-16 16 7.2 16 16z"/></svg><svg viewBox="0 0 512 512" id="heart-regular" xmlns="http://www.w3.org/2000/svg"><!--! Font Awesome Pro 6.2.0 by @fontawesome - https://fontawesome.com License - https://fontawesome.com/license (Commercial License) Copyright 2022 Fonticons, Inc.--><path d="m244 84 11.1 12 12-11.98C300.6 51.37 347 36.51 392.6 44.1c68.9 11.48 119.4 71.1 119.4 141v5.8c0 41.5-17.2 81.2-47.6 109.5L283.7 469.1c-7.5 7-17.4 10.9-27.7 10.9s-20.2-3.9-27.7-10.9L47.59 300.4C17.23 272.1 0 232.4 0 190.9v-5.8c0-69.9 50.52-129.52 119.4-141 44.7-7.59 92 7.27 124.6 39.9-.9 0 0 .01 0 0zm11.1 79.9-45-46.8c-21.7-20.82-52.5-30.7-82.8-25.66C81.55 99.07 48 138.7 48 185.1v5.8c0 28.2 11.71 55.2 32.34 74.4L256 429.3l175.7-164c20.6-19.2 32.3-46.2 32.3-74.4v-5.8c0-46.4-33.6-86.03-79.3-93.66-30.3-5.04-61.1 4.84-82.8 25.66l-46.8 46.8z"/></svg><svg viewBox="0 0 448 512" id="instagram" xmlns="http://www.w3.org/2000/svg"><!--! Font Awesome Pro 6.2.0 by @fontawesome - https://fontawesome.com License - https://fontawesome.com/license (Commercial License) Copyright 2022 Fonticons, Inc.--><path d="M224.1 141c-63.6 0-114.9 51.3-114.9 114.9s51.3 114.9 114.9 114.9S339 319.5 339 255.9 287.7 141 224.1 141zm0 189.6c-41.1 0-74.7-33.5-74.7-74.7s33.5-74.7 74.7-74.7 74.7 33.5 74.7 74.7-33.6 74.7-74.7 74.7zm146.4-194.3c0 14.9-12 26.8-26.8 26.8-14.9 0-26.8-12-26.8-26.8s12-26.8 26.8-26.8 26.8 12 26.8 26.8zm76.1 27.2c-1.7-35.9-9.9-67.7-36.2-93.9-26.2-26.2-58-34.4-93.9-36.2-37-2.1-147.9-2.1-184.9 0-35.8 1.7-67.6 9.9-93.9 36.1s-34.4 58-36.2 93.9c-2.1 37-2.1 147.9 0 184.9 1.7 35.9 9.9 67.7 36.2 93.9s58 34.4 93.9 36.2c37 2.1 147.9 2.1 184.9 0 35.9-1.7 67.7-9.9 93.9-36.2 26.2-26.2 34.4-58 36.2-93.9 2.1-37 2.1-147.8 0-184.8zM398.8 388c-7.8 19.6-22.9 34.7-42.6 42.6-29.5 11.7-99.5 9-132.1 9s-102.7 2.6-132.1-9c-19.6-7.8-34.7-22.9-42.6-42.6-11.7-29.5-9-99.5-9-132.1s-2.6-102.7 9-132.1c7.8-19.6 22.9-34.7 42.6-42.6 29.5-11.7 99.5-9 132.1-9s102.7-2.6 132.1 9c19.6 7.8 34.7 22.9 42.6 42.6 11.7 29.5 9 99.5 9 132.1s2.7 102.7-9 132.1z"/></svg><svg viewBox="0 0 448 512" id="linkedin-in" xmlns="http://www.w3.org/2000/svg"><!--! Font Awesome Pro 6.2.0 by @fontawesome - https://fontawesome.com License - https://fontawesome.com/license (Commercial License) Copyright 2022 Fonticons, Inc.--><path d="M100.28 448H7.4V148.9h92.88zM53.79 108.1C24.09 108.1 0 83.5 0 53.8a53.79 53.79 0 0 1 107.58 0c0 29.7-24.1 54.3-53.79 54.3zM447.9 448h-92.68V302.4c0-34.7-.7-79.2-48.29-79.2-48.29 0-55.69 37.7-55.69 76.7V448h-92.78V148.9h89.08v40.8h1.3c12.4-23.5 42.69-48.3 87.88-48.3 94 0 111.28 61.9 111.28 142.3V448z"/></svg><svg viewBox="0 0 448 512" id="location-arrow-solid" xmlns="http://www.w3.org/2000/svg"><!--! Font Awesome Pro 6.2.0 by @fontawesome - https://fontawesome.com License - https://fontawesome.com/license (Commercial License) Copyright 2022 Fonticons, Inc.--><path d="M429.6 92.1c4.9-11.9 2.1-25.6-7-34.7s-22.8-11.9-34.7-7l-352 144c-14.2 5.8-22.2 20.8-19.3 35.8S32.7 256 48 256h176v176c0 15.3 10.8 28.4 25.8 31.4s30-5.1 35.8-19.3l144-352z"/></svg><svg viewBox="0 0 384 512" id="location-dot-solid" xmlns="http://www.w3.org/2000/svg"><!--! Font Awesome Pro 6.2.0 by @fontawesome - https://fontawesome.com License - https://fontawesome.com/license (Commercial License) Copyright 2022 Fonticons, Inc.--><path d="M215.7 499.2C267 435 384 279.4 384 192 384 86 298 0 192 0S0 86 0 192c0 87.4 117 243 168.3 307.2 12.3 15.3 35.1 15.3 47.4 0zM192 256c-35.3 0-64-28.7-64-64s28.7-64 64-64 64 28.7 64 64-28.7 64-64 64z"/></svg><svg viewBox="0 0 178 41" id="logo" xmlns="http://www.w3.org/2000/svg"><defs><path id="ava" d="M0 .117h35.952V41H0z"/></defs><g fill="none" fill-rule="evenodd"><path fill="#2A42E8" d="m23.8 19.044-5.094-2.885a1.23 1.23 0 0 0-1.209 0l-5.093 2.885a.591.591 0 0 0-.302.514v5.849c0 .327.27.593.604.593h2.64a.599.599 0 0 0 .604-.593v-3.66a.6.6 0 0 1 .605-.594h3.094a.6.6 0 0 1 .605.594v3.66c0 .327.27.593.604.593h2.64a.599.599 0 0 0 .604-.593v-5.849a.591.591 0 0 0-.303-.514"/><g transform="translate(.102)"><mask id="avb" fill="#fff"><use xlink:href="#ava"/></mask><path fill="#2A42E8" d="M28.989 19.13v6.241a1.2 1.2 0 0 1-.596 1.04l-4.477 2.608-5.358 3.121a1.183 1.183 0 0 1-1.19 0l-5.358-3.12v-.016l-4.451-2.593a1.204 1.204 0 0 1-.596-1.04v-8.705c0-.43.227-.826.596-1.04l4.762-2.775a1.181 1.181 0 0 1 1.19 0l3.87 2.254c.368.215.822.215 1.19 0l3.87-2.254a1.182 1.182 0 0 1 1.19 0l4.762 2.774c.369.215.596.612.596 1.04v2.465zm5.363-9.974L19.576.55a3.176 3.176 0 0 0-3.2 0L1.6 9.156A3.234 3.234 0 0 0 0 11.952v17.213c0 1.153.61 2.22 1.6 2.796l14.776 8.606c.99.577 2.21.577 3.2 0l14.776-8.606a3.234 3.234 0 0 0 1.6-2.796V11.952c0-1.153-.61-2.219-1.6-2.796z" mask="url(#avb)"/></g><text fill="#FFF" font-family="Rubik-Light, Rubik" font-size="28" font-weight="300">
            <tspan x="47.102" y="30">casa</tspan> <tspan x="105.902" y="30" font-family="Rubik-Medium, Rubik" font-weight="400">Royal</tspan>
        </text></g></svg><svg viewBox="0 0 448 512" id="menu" xmlns="http://www.w3.org/2000/svg"><!--! Font Awesome Pro 6.2.0 by @fontawesome - https://fontawesome.com License - https://fontawesome.com/license (Commercial License) Copyright 2022 Fonticons, Inc.--><path d="M0 96c0-17.7 14.3-32 32-32h384c17.7 0 32 14.3 32 32s-14.3 32-32 32H32c-17.7 0-32-14.3-32-32zm0 160c0-17.7 14.3-32 32-32h384c17.7 0 32 14.3 32 32s-14.3 32-32 32H32c-17.7 0-32-14.3-32-32zm448 160c0 17.7-14.3 32-32 32H32c-17.7 0-32-14.3-32-32s14.3-32 32-32h384c17.7 0 32 14.3 32 32z"/></svg><svg viewBox="0 0 512 512" id="paper-plane-regular" xmlns="http://www.w3.org/2000/svg"><!--! Font Awesome Pro 6.2.0 by @fontawesome - https://fontawesome.com License - https://fontawesome.com/license (Commercial License) Copyright 2022 Fonticons, Inc.--><path d="M501.6 4.186a24.105 24.105 0 0 0-25.44-1.063L12.12 267.1C4.184 271.7-.504 280.3.043 289.4c.547 9.125 6.234 17.16 14.66 20.69l153.3 64.38v113.5c0 8.781 4.797 16.84 12.5 21.06C184.1 511 188 512 191.1 512c4.516 0 9.038-1.281 12.99-3.812l111.2-71.46 98.56 41.4a24.044 24.044 0 0 0 9.297 1.875c4.078 0 8.141-1.031 11.78-3.094a23.936 23.936 0 0 0 11.95-17.38l64-432C513.1 18.44 509.1 9.373 501.6 4.186zM369.3 119.2 182.2 328.1 78.23 284.7 369.3 119.2zM215.1 444v-49.36l46.45 19.51L215.1 444zm189.7-22.1-176.6-74.19 224.6-249.5-48 323.69z"/></svg><svg viewBox="0 0 512 512" id="phone-solid" xmlns="http://www.w3.org/2000/svg"><!--! Font Awesome Pro 6.2.0 by @fontawesome - https://fontawesome.com License - https://fontawesome.com/license (Commercial License) Copyright 2022 Fonticons, Inc.--><path d="M164.9 24.6c-7.7-18.6-28-28.5-47.4-23.2l-88 24C12.1 30.2 0 46 0 64c0 247.4 200.6 448 448 448 18 0 33.8-12.1 38.6-29.5l24-88c5.3-19.4-4.6-39.7-23.2-47.4l-96-40c-16.3-6.8-35.2-2.1-46.3 11.6L304.7 368c-70.4-33.3-127.4-90.3-160.7-160.7l49.3-40.3c13.7-11.2 18.4-30 11.6-46.3l-40-96z"/></svg><svg viewBox="0 0 384 512" id="pinterest-p" xmlns="http://www.w3.org/2000/svg"><!--! Font Awesome Pro 6.2.0 by @fontawesome - https://fontawesome.com License - https://fontawesome.com/license (Commercial License) Copyright 2022 Fonticons, Inc.--><path d="M204 6.5C101.4 6.5 0 74.9 0 185.6 0 256 39.6 296 63.6 296c9.9 0 15.6-27.6 15.6-35.4 0-9.3-23.7-29.1-23.7-67.8 0-80.4 61.2-137.4 140.4-137.4 68.1 0 118.5 38.7 118.5 109.8 0 53.1-21.3 152.7-90.3 152.7-24.9 0-46.2-18-46.2-43.8 0-37.8 26.4-74.4 26.4-113.4 0-66.2-93.9-54.2-93.9 25.8 0 16.8 2.1 35.4 9.6 50.7-13.8 59.4-42 147.9-42 209.1 0 18.9 2.7 37.5 4.5 56.4 3.4 3.8 1.7 3.4 6.9 1.5 50.4-69 48.6-82.5 71.4-172.8 12.3 23.4 44.1 36 69.3 36 106.2 0 153.9-103.5 153.9-196.8C384 71.3 298.2 6.5 204 6.5z"/></svg><svg viewBox="0 0 512 512" id="ruler-combined-solid" xmlns="http://www.w3.org/2000/svg"><!--! Font Awesome Pro 6.2.0 by @fontawesome - https://fontawesome.com License - https://fontawesome.com/license (Commercial License) Copyright 2022 Fonticons, Inc.--><path d="M.2 468.9C2.7 493.1 23.1 512 48 512h416c26.5 0 48-21.5 48-48v-96c0-26.5-21.5-48-48-48h-48v80c0 8.8-7.2 16-16 16s-16-7.2-16-16v-80h-64v80c0 8.8-7.2 16-16 16s-16-7.2-16-16v-80h-64v80c0 8.8-7.2 16-16 16s-16-7.2-16-16v-80h-80c-8.8 0-16-7.2-16-16s7.2-16 16-16h80v-64h-80c-8.8 0-16-7.2-16-16s7.2-16 16-16h80v-64h-80c-8.8 0-16-7.2-16-16s7.2-16 16-16h80V48c0-26.5-21.5-48-48-48H48C21.5 0 0 21.5 0 48v416c0 1.7.1 3.3.2 4.9z"/></svg><svg viewBox="0 0 576 512" id="star-solid" xmlns="http://www.w3.org/2000/svg"><!--! Font Awesome Pro 6.2.0 by @fontawesome - https://fontawesome.com License - https://fontawesome.com/license (Commercial License) Copyright 2022 Fonticons, Inc.--><path d="M316.9 18c-5.3-11-16.5-18-28.8-18s-23.4 7-28.8 18L195 150.3 51.4 171.5c-12 1.8-22 10.2-25.7 21.7s-.7 24.2 7.9 32.7L137.8 329l-24.6 145.7c-2 12 3 24.2 12.9 31.3s23 8 33.8 2.3l128.3-68.5 128.3 68.5c10.8 5.7 23.9 4.9 33.8-2.3s14.9-19.3 12.9-31.3L438.5 329l104.2-103.1c8.6-8.5 11.7-21.2 7.9-32.7s-13.7-19.9-25.7-21.7l-143.7-21.2L316.9 18z"/></svg><svg viewBox="0 0 512 512" id="twitter" xmlns="http://www.w3.org/2000/svg"><!--! Font Awesome Pro 6.2.0 by @fontawesome - https://fontawesome.com License - https://fontawesome.com/license (Commercial License) Copyright 2022 Fonticons, Inc.--><path d="M459.37 151.716c.325 4.548.325 9.097.325 13.645 0 138.72-105.583 298.558-298.558 298.558-59.452 0-114.68-17.219-161.137-47.106 8.447.974 16.568 1.299 25.34 1.299 49.055 0 94.213-16.568 130.274-44.832-46.132-.975-84.792-31.188-98.112-72.772 6.498.974 12.995 1.624 19.818 1.624 9.421 0 18.843-1.3 27.614-3.573-48.081-9.747-84.143-51.98-84.143-102.985v-1.299c13.969 7.797 30.214 12.67 47.431 13.319-28.264-18.843-46.781-51.005-46.781-87.391 0-19.492 5.197-37.36 14.294-52.954 51.655 63.675 129.3 105.258 216.365 109.807-1.624-7.797-2.599-15.918-2.599-24.04 0-57.828 46.782-104.934 104.934-104.934 30.213 0 57.502 12.67 76.67 33.137 23.715-4.548 46.456-13.32 66.599-25.34-7.798 24.366-24.366 44.833-46.132 57.827 21.117-2.273 41.584-8.122 60.426-16.243-14.292 20.791-32.161 39.308-52.628 54.253z"/></svg><svg viewBox="0 0 16 19" id="verified-icon" xmlns="http://www.w3.org/2000/svg"><defs><path id="bda" d="M0 0h15.955v19H0z"/><path id="bdc" d="M.005 0h7.95v19H.005z"/></defs><g fill="none" fill-rule="evenodd"><g transform="matrix(-1 0 0 1 16 0)"><mask id="bdb" fill="#fff"><use xlink:href="#bda"/></mask><path fill="#00C9A7" d="M15.911 2.97c-3.289 0-5.808-.928-7.934-2.97C5.846 2.042 3.327 2.97.044 2.97c0 5.318-1.118 12.934 7.933 16.03 9.052-3.096 7.934-10.712 7.934-16.03" mask="url(#bdb)"/></g><g transform="matrix(-1 0 0 1 8 0)"><mask id="bdd" fill="#fff"><use xlink:href="#bdc"/></mask><path fill="#02AD8C" d="M7.911 2.97C4.634 2.97 2.124 2.042.005 0v19c9.02-3.096 7.906-10.712 7.906-16.03" mask="url(#bdd)"/></g><path fill="#F1F1F2" d="M10.128 14 14 10.236l-2.133-2.072-1.74 1.69L5.134 5 3 7.073z"/><path fill="#E6E6E6" d="M8 12 3 6.966 4.953 5 8 8.068z"/></g></svg></svg>