<svg aria-hidden="true" style="position: absolute; width: 0; height: 0; overflow: hidden;" version="1.1" xmlns="http://www.w3.org/2000/svg" xmlns:xlink="http://www.w3.org/1999/xlink">
<defs>
<symbol id="icon-angle-down-solid" viewBox="0 0 28 32">
<path d="M12.588 23.413c0.781 0.781 2.050 0.781 2.831 0l10-10c0.781-0.781 0.781-2.050 0-2.831s-2.050-0.781-2.831 0l-8.588 8.588-8.588-8.581c-0.781-0.781-2.050-0.781-2.831 0s-0.781 2.050 0 2.831l10 10z"></path>
</symbol>
<symbol id="icon-angle-left-solid" viewBox="0 0 20 32">
<path d="M2.587 14.588c-0.781 0.781-0.781 2.050 0 2.831l10 10c0.781 0.781 2.050 0.781 2.831 0s0.781-2.050 0-2.831l-8.588-8.588 8.581-8.588c0.781-0.781 0.781-2.050 0-2.831s-2.050-0.781-2.831 0l-10 10z"></path>
</symbol>
<symbol id="icon-angle-right-solid" viewBox="0 0 20 32">
<path d="M17.413 14.588c0.781 0.781 0.781 2.050 0 2.831l-10 10c-0.781 0.781-2.050 0.781-2.831 0s-0.781-2.050 0-2.831l8.588-8.588-8.581-8.588c-0.781-0.781-0.781-2.050 0-2.831s2.050-0.781 2.831 0l10 10z"></path>
</symbol>
<symbol id="icon-arrow-right-arrow-left-solid" viewBox="0 0 36 32">
<path d="M26.413 17.413c-0.781 0.781-2.050 0.781-2.831 0s-0.781-2.050 0-2.831l3.587-3.581h-23.169c-1.106 0-2-0.894-2-2s0.894-2 2-2h23.169l-3.581-3.587c-0.781-0.781-0.781-2.050 0-2.831s2.050-0.781 2.831 0l7 7c0.781 0.781 0.781 2.050 0 2.831l-7 7zM9.581 31.413l-7-7c-0.781-0.781-0.781-2.050 0-2.831l7-7c0.781-0.781 2.050-0.781 2.831 0s0.781 2.050 0 2.831l-3.581 3.587h23.169c1.106 0 2 0.894 2 2s-0.894 2-2 2h-23.169l3.588 3.587c0.781 0.781 0.781 2.050 0 2.831s-2.050 0.781-2.831 0z"></path>
</symbol>
<symbol id="icon-bath-solid" viewBox="0 0 32 32">
<path d="M6 4.831c0-0.456 0.369-0.831 0.831-0.831 0.219 0 0.431 0.088 0.588 0.244l0.931 0.931c-0.225 0.563-0.35 1.181-0.35 1.825 0 1.244 0.45 2.375 1.2 3.25-0.331 0.575-0.25 1.319 0.238 1.813 0.588 0.588 1.537 0.588 2.119 0l6.506-6.5c0.587-0.588 0.587-1.537 0-2.119-0.494-0.494-1.238-0.569-1.813-0.237-0.875-0.756-2.006-1.206-3.25-1.206-0.644 0-1.262 0.125-1.825 0.344l-0.931-0.931c-0.906-0.906-2.138-1.413-3.412-1.413-2.669 0-4.831 2.163-4.831 4.831v11.169c-1.106 0-2 0.894-2 2s0.894 2 2 2h28c1.106 0 2-0.894 2-2s-0.894-2-2-2h-24v-11.169zM2 22v1c0 1.775 0.775 3.375 2 4.475v2.525c0 1.106 0.894 2 2 2s2-0.894 2-2v-1h16v1c0 1.106 0.894 2 2 2s2-0.894 2-2v-2.525c1.225-1.1 2-2.694 2-4.475v-1h-28z"></path>
</symbol>
<symbol id="icon-bed-solid" viewBox="0 0 40 32">
<path d="M2 2c1.106 0 2 0.894 2 2v16h14v-10c0-1.106 0.894-2 2-2h14c3.313 0 6 2.688 6 6v14c0 1.106-0.894 2-2 2s-2-0.894-2-2v-2h-32v2c0 1.106-0.894 2-2 2s-2-0.894-2-2v-24c0-1.106 0.894-2 2-2zM11 18c-2.762 0-5-2.238-5-5s2.238-5 5-5 5 2.238 5 5-2.238 5-5 5z"></path>
</symbol>
<symbol id="icon-bolt-lightning-solid" viewBox="0 0 24 32">
<path d="M0 16l1.781-14.25c0.125-1 0.975-1.75 1.987-1.75h10.537c0.938 0 1.694 0.756 1.694 1.694 0 0.2-0.037 0.406-0.106 0.594l-2.894 7.713h8.706c1.262 0 2.294 1.025 2.294 2.294 0 0.463-0.137 0.912-0.4 1.294l-12.012 17.563c-0.369 0.538-0.975 0.856-1.619 0.856h-0.181c-0.981 0-1.781-0.8-1.781-1.781 0-0.144 0.019-0.288 0.056-0.431l2.938-11.794h-9c-1.106 0-2-0.894-2-2z"></path>
</symbol>
<symbol id="icon-calendar-days-solid" viewBox="0 0 28 32">
<path d="M8 0c1.106 0 2 0.894 2 2v2h8v-2c0-1.106 0.894-2 2-2s2 0.894 2 2v2h3c1.656 0 3 1.344 3 3v3h-28v-3c0-1.656 1.344-3 3-3h3v-2c0-1.106 0.894-2 2-2zM0 12h28v17c0 1.656-1.344 3-3 3h-22c-1.656 0-3-1.344-3-3v-17zM4 17v2c0 0.55 0.45 1 1 1h2c0.55 0 1-0.45 1-1v-2c0-0.55-0.45-1-1-1h-2c-0.55 0-1 0.45-1 1zM12 17v2c0 0.55 0.45 1 1 1h2c0.55 0 1-0.45 1-1v-2c0-0.55-0.45-1-1-1h-2c-0.55 0-1 0.45-1 1zM21 16c-0.55 0-1 0.45-1 1v2c0 0.55 0.45 1 1 1h2c0.55 0 1-0.45 1-1v-2c0-0.55-0.45-1-1-1h-2zM4 25v2c0 0.55 0.45 1 1 1h2c0.55 0 1-0.45 1-1v-2c0-0.55-0.45-1-1-1h-2c-0.55 0-1 0.45-1 1zM13 24c-0.55 0-1 0.45-1 1v2c0 0.55 0.45 1 1 1h2c0.55 0 1-0.45 1-1v-2c0-0.55-0.45-1-1-1h-2zM20 25v2c0 0.55 0.45 1 1 1h2c0.55 0 1-0.45 1-1v-2c0-0.55-0.45-1-1-1h-2c-0.55 0-1 0.45-1 1z"></path>
</symbol>
<symbol id="icon-car-solid" viewBox="0 0 32 32">
<path d="M8.45 7.338l-1.631 4.662h18.362l-1.631-4.662c-0.281-0.8-1.038-1.338-1.887-1.338h-11.325c-0.85 0-1.606 0.537-1.887 1.338zM2.475 12.3l2.2-6.281c0.844-2.406 3.112-4.019 5.662-4.019h11.325c2.55 0 4.819 1.612 5.663 4.019l2.2 6.281c1.45 0.6 2.475 2.031 2.475 3.7v12c0 1.106-0.894 2-2 2h-2c-1.106 0-2-0.894-2-2v-3h-20v3c0 1.106-0.894 2-2 2h-2c-1.106 0-2-0.894-2-2v-12c0-1.669 1.025-3.1 2.475-3.7zM8 18c0-1.106-0.894-2-2-2s-2 0.894-2 2 0.894 2 2 2 2-0.894 2-2zM26 20c1.106 0 2-0.894 2-2s-0.894-2-2-2-2 0.894-2 2 0.894 2 2 2z"></path>
</symbol>
<symbol id="icon-casarolyablacklogo" viewBox="0 0 179 41">
    <defs>
        <path id="a" d="M0 .117h35.952V41H0z"/>
    </defs>
    <g fill="none" fill-rule="evenodd">
        <path fill="#2A42E8" d="M23.698 19.044l-5.093-2.885a1.23 1.23 0 0 0-1.21 0l-5.093 2.885a.591.591 0 0 0-.302.514v5.849c0 .327.27.593.605.593h2.639a.599.599 0 0 0 .604-.593v-3.66a.6.6 0 0 1 .605-.594h3.094a.6.6 0 0 1 .605.594v3.66c0 .327.27.593.604.593h2.64a.599.599 0 0 0 .604-.593v-5.849a.591.591 0 0 0-.302-.514"/>
        <g>
            <mask id="b" fill="#fff">
                <use xlink:href="#a"/>
            </mask>
            <path fill="#2A42E8" d="M28.989 19.13v6.241c0 .43-.227.826-.596 1.04l-4.477 2.608-5.358 3.121a1.183 1.183 0 0 1-1.19 0l-5.358-3.12v-.016l-4.451-2.593a1.204 1.204 0 0 1-.596-1.04v-8.705c0-.43.227-.826.596-1.04l4.762-2.775a1.181 1.181 0 0 1 1.19 0l3.87 2.254c.368.215.822.215 1.19 0l3.87-2.254a1.182 1.182 0 0 1 1.19 0l4.762 2.774c.369.215.596.612.596 1.04v2.465zm5.363-9.974L19.576.55a3.176 3.176 0 0 0-3.2 0L1.6 9.156A3.234 3.234 0 0 0 0 11.952v17.213c0 1.153.61 2.22 1.6 2.796l14.776 8.606c.99.577 2.21.577 3.2 0l14.776-8.606a3.234 3.234 0 0 0 1.6-2.796V11.952c0-1.153-.61-2.219-1.6-2.796z" mask="url(#b)"/>
        </g>
        <text fill="#4B4D4F" font-family="Rubik-Light, Rubik" font-size="28" font-weight="300" transform="translate(-.102)">
            <tspan x="48.102" y="30">casa</tspan> <tspan x="106.902" y="30" font-family="Rubik-Medium, Rubik" font-weight="400">Royal</tspan>
        </text>
    </g>
</symbol>
<symbol id="icon-casaroyallogo" viewBox="0 0 178 41">
    <defs>
        <path id="a" d="M0 .117h35.952V41H0z"/>
    </defs>
    <g fill="none" fill-rule="evenodd">
        <path fill="#2A42E8" d="M23.8 19.044l-5.094-2.885a1.23 1.23 0 0 0-1.209 0l-5.093 2.885a.591.591 0 0 0-.302.514v5.849c0 .327.27.593.604.593h2.64a.599.599 0 0 0 .604-.593v-3.66a.6.6 0 0 1 .605-.594h3.094a.6.6 0 0 1 .605.594v3.66c0 .327.27.593.604.593h2.64a.599.599 0 0 0 .604-.593v-5.849a.591.591 0 0 0-.303-.514"/>
        <g transform="translate(.102)">
            <mask id="b" fill="#fff">
                <use xlink:href="#a"/>
            </mask>
            <path fill="#2A42E8" d="M28.989 19.13v6.241c0 .43-.227.826-.596 1.04l-4.477 2.608-5.358 3.121a1.183 1.183 0 0 1-1.19 0l-5.358-3.12v-.016l-4.451-2.593a1.204 1.204 0 0 1-.596-1.04v-8.705c0-.43.227-.826.596-1.04l4.762-2.775a1.181 1.181 0 0 1 1.19 0l3.87 2.254c.368.215.822.215 1.19 0l3.87-2.254a1.182 1.182 0 0 1 1.19 0l4.762 2.774c.369.215.596.612.596 1.04v2.465zm5.363-9.974L19.576.55a3.176 3.176 0 0 0-3.2 0L1.6 9.156A3.234 3.234 0 0 0 0 11.952v17.213c0 1.153.61 2.22 1.6 2.796l14.776 8.606c.99.577 2.21.577 3.2 0l14.776-8.606a3.234 3.234 0 0 0 1.6-2.796V11.952c0-1.153-.61-2.219-1.6-2.796z" mask="url(#b)"/>
        </g>
        <text fill="#FFF" font-family="Rubik-Light, Rubik" font-size="28" font-weight="300">
            <tspan x="47.102" y="30">casa</tspan> <tspan x="105.902" y="30" font-family="Rubik-Medium, Rubik" font-weight="400">Royal</tspan>
        </text>
    </g>
</symbol>
<symbol id="icon-circle-check-regular" viewBox="0 0 32 32">
<path d="M15.238 21.238c-0.681 0.681-1.794 0.681-2.475 0l-4-4c-0.681-0.681-0.681-1.794 0-2.475s1.794-0.681 2.475 0l2.762 2.763 6.762-6.762c0.681-0.681 1.794-0.681 2.475 0s0.681 1.794 0 2.475l-8 8zM32 16c0 8.837-7.163 16-16 16s-16-7.163-16-16c0-8.838 7.162-16 16-16s16 7.162 16 16zM16 3c-7.181 0-13 5.819-13 13s5.819 13 13 13c7.181 0 13-5.819 13-13s-5.819-13-13-13z"></path>
</symbol>
<symbol id="icon-circle-dot-regular" viewBox="0 0 32 32">
<path d="M10 16c0-3.369 2.631-6 6-6 3.313 0 6 2.631 6 6 0 3.313-2.688 6-6 6-3.369 0-6-2.688-6-6zM32 16c0 8.837-7.163 16-16 16s-16-7.163-16-16c0-8.838 7.162-16 16-16s16 7.162 16 16zM16 3c-7.181 0-13 5.819-13 13s5.819 13 13 13c7.181 0 13-5.819 13-13s-5.819-13-13-13z"></path>
</symbol>
<symbol id="icon-clock-regular" viewBox="0 0 32 32">
<path d="M14.5 7.5c0-0.831 0.669-1.5 1.5-1.5s1.5 0.669 1.5 1.5v7.7l5.331 3.55c0.688 0.462 0.875 1.394 0.363 2.081-0.406 0.688-1.337 0.875-2.025 0.363l-6-4c-0.419-0.225-0.669-0.694-0.669-1.25v-8.444zM16 0c8.837 0 16 7.162 16 16s-7.163 16-16 16c-8.838 0-16-7.163-16-16s7.162-16 16-16zM3 16c0 7.181 5.819 13 13 13s13-5.819 13-13c0-7.181-5.819-13-13-13s-13 5.819-13 13z"></path>
</symbol>
<symbol id="icon-comment-regular" viewBox="0 0 32 32">
<path d="M16 2c-8.838 0-15.998 5.819-15.998 13 0 2.977 1.244 5.703 3.307 7.887-0.93 2.469-2.867 4.555-2.898 4.578-0.414 0.438-0.523 1.078-0.289 1.625 0.242 0.547 0.777 0.909 1.379 0.909 3.844 0 6.819-1.609 8.694-2.891 1.75 0.566 3.762 0.891 5.806 0.891 8.838 0 15.944-5.821 15.944-13s-7.106-13-15.944-13zM16.006 25c-1.672 0-3.32-0.258-4.899-0.758l-1.422-0.445-1.219 0.859c-0.891 0.633-2.117 1.336-3.594 1.813 0.461-0.758 0.898-1.609 1.242-2.516l0.664-1.75-1.289-1.367c-1.127-1.205-2.486-3.199-2.486-5.837 0-5.516 5.828-10 13-10s13 4.484 13 10-5.829 10-12.998 10z"></path>
</symbol>
<symbol id="icon-facebook-f" viewBox="0 0 20 32">
<path d="M17.446 18l0.889-5.791h-5.557v-3.758c0-1.584 0.776-3.129 3.265-3.129h2.526v-4.931s-2.293-0.391-4.484-0.391c-4.576 0-7.567 2.774-7.567 7.795v4.414h-5.087v5.791h5.087v14h6.261v-14z"></path>
</symbol>
<symbol id="icon-flag-usa-solid" viewBox="0 0 32 32">
<path d="M3.938 1.494c-0.225-0.863-1.006-1.494-1.938-1.494-1.106 0-2 0.894-2 2v28c0 1.106 0.894 2 2 2s2-0.894 2-2v-6.244c0.125-0.050 0.3-0.113 0.513-0.188 0.5-0.175 1.212-0.413 2.038-0.65 1.694-0.481 3.731-0.919 5.45-0.919 1.644 0 2.875 0.4 4.375 0.9l0.063 0.019c1.488 0.494 3.244 1.081 5.563 1.081 2.3 0 4.531-0.569 6.131-1.1 0.813-0.269 1.488-0.544 1.969-0.744 0.238-0.1 0.431-0.188 0.563-0.25 0.069-0.031 0.119-0.056 0.156-0.075l0.044-0.025 0.012-0.006h0.006s0 0-0.894-1.788l0.894 1.788c0.675-0.337 1.106-1.031 1.106-1.788v-1.944c-0.137 0.050-0.313 0.113-0.512 0.188-0.55 0.194-1.319 0.45-2.219 0.706-1.769 0.506-4.125 1.038-6.256 1.038s-3.994-0.531-5.712-1.025l-0.050-0.012c-1.769-0.506-3.4-0.962-5.238-0.962-1.856 0-3.869 0.469-5.456 0.956-0.787 0.244-1.45 0.481-1.919 0.663-0.231 0.087-0.419 0.163-0.537 0.219l-0.088 0.038v-2.156c0.494-0.188 1.169-0.431 1.956-0.675 1.663-0.512 3.9-1.044 6.044-1.044s4.012 0.531 5.738 1.025l0.044 0.012c1.769 0.506 3.387 0.962 5.219 0.962 1.85 0 3.994-0.469 5.719-0.962 0.85-0.244 1.587-0.488 2.1-0.669 0.256-0.094 0.462-0.169 0.6-0.219 0.069-0.025 0.125-0.044 0.156-0.063l0.038-0.012 0.006-0.006 0.369-0.15v-3.85c-0.137 0.050-0.313 0.113-0.512 0.188-0.55 0.194-1.319 0.45-2.219 0.706-1.769 0.506-4.125 1.037-6.256 1.037s-3.994-0.531-5.712-1.025l-0.050-0.012c-1.769-0.506-3.4-0.963-5.238-0.963-1.856 0-3.869 0.469-5.456 0.956-0.787 0.244-1.45 0.481-1.919 0.662-0.231 0.088-0.419 0.162-0.537 0.219l-0.088 0.037v-2.156c0.494-0.188 1.169-0.431 1.956-0.675 1.663-0.512 3.9-1.044 6.044-1.044s4.012 0.531 5.738 1.025v0l0.044 0.012c1.769 0.506 3.387 0.963 5.219 0.963 1.85 0 3.994-0.469 5.719-0.963 0.85-0.244 1.587-0.488 2.1-0.669 0.256-0.094 0.462-0.169 0.6-0.219 0.069-0.025 0.125-0.044 0.156-0.063l0.038-0.012 0.006-0.006 0.369-0.15v-3.85c-0.137 0.050-0.313 0.112-0.512 0.188-0.55 0.194-1.319 0.45-2.219 0.706-1.769 0.506-4.125 1.038-6.256 1.038s-3.994-0.531-5.712-1.025l-0.050-0.013c-0.419-0.119-0.825-0.237-1.231-0.344v-2.069c0.6 0.15 1.175 0.313 1.738 0.475l0.044 0.013c1.762 0.506 3.381 0.963 5.212 0.963 1.85 0 3.994-0.469 5.719-0.963 0.85-0.244 1.587-0.487 2.1-0.669 0.256-0.094 0.462-0.169 0.6-0.219 0.069-0.025 0.125-0.044 0.156-0.063l0.038-0.013 0.006-0.006 0.369-0.15v-1.919c0-0.712-0.381-1.369-0.994-1.731s-1.375-0.362-1.994-0.013l-0.012 0.006c-0.019 0.013-0.044 0.025-0.087 0.050-0.081 0.044-0.212 0.112-0.387 0.194-0.344 0.162-0.85 0.388-1.462 0.612-1.25 0.456-2.887 0.881-4.563 0.881-1.669 0-3.163-0.413-4.944-0.925l-0.081-0.025c-1.694-0.481-3.681-1.050-5.963-1.050-2.294 0-4.638 0.563-6.338 1.087-0.45 0.137-0.862 0.275-1.225 0.406zM13 3c0 0.55-0.45 1-1 1s-1-0.45-1-1 0.45-1 1-1 1 0.45 1 1zM9 3.5c0 0.55-0.45 1-1 1s-1-0.45-1-1 0.45-1 1-1 1 0.45 1 1zM12 8c-0.55 0-1-0.45-1-1s0.45-1 1-1 1 0.45 1 1-0.45 1-1 1zM9 7.5c0 0.55-0.45 1-1 1s-1-0.45-1-1 0.45-1 1-1 1 0.45 1 1z"></path>
</symbol>
<symbol id="icon-flag" viewBox="0 0 48 32">
<path fill="#f5f5f5" style="fill: var(--color2, #f5f5f5)" d="M47.080 32h-46.254c-0.457-0.005-0.826-0.376-0.826-0.834 0-0.002 0-0.004 0-0.006v0-30.266c0-0.466 0.37-0.84 0.826-0.84h46.254c0.456 0 0.826 0.374 0.826 0.84v30.266c0 0.464-0.37 0.84-0.826 0.84z"></path>
<path fill="#ff4b55" style="fill: var(--color3, #ff4b55)" d="M48 2h-48v-1.316c0-0.378 0.37-0.684 0.828-0.684h46.344c0.458 0 0.828 0.306 0.828 0.684v1.316z"></path>
<path fill="#ff4b55" style="fill: var(--color3, #ff4b55)" d="M0 12h48v-2h-48zM0 8h48v-2h-48zM48 18h-47.172c-0.458 0-0.828-0.306-0.828-0.684v-1.316h48v2zM0 26h48v-2h-48zM47.172 32h-46.344c-0.458 0-0.828-0.306-0.828-0.684v-1.316h48v1.316c0 0.378-0.37 0.684-0.828 0.684zM0 22h48v-2h-48z"></path>
<path fill="#41479b" style="fill: var(--color4, #41479b)" d="M21.186 0h-20.372c-0.45 0-0.814 0.394-0.814 0.88v16.24c0 0.486 0.364 0.88 0.814 0.88h20.372c0.45 0 0.814-0.394 0.814-0.88v-16.24c0-0.486-0.364-0.88-0.814-0.88z"></path>
<path fill="#f5f5f5" style="fill: var(--color2, #f5f5f5)" d="M3.080 2.060l0.2 0.63 0.636 0.006c0.080 0 0.116 0.11 0.050 0.16l-0.51 0.394 0.19 0.634c0.026 0.080-0.064 0.148-0.13 0.1l-0.516-0.388-0.516 0.384c-0.066 0.050-0.156-0.016-0.13-0.1l0.19-0.632-0.51-0.394c-0.066-0.050-0.032-0.16 0.050-0.16l0.634-0.006 0.2-0.628c0.010-0.036 0.043-0.062 0.081-0.062s0.071 0.026 0.081 0.061l0 0.001z"></path>
<path fill="#f5f5f5" style="fill: var(--color2, #f5f5f5)" d="M3.080 4.060l0.2 0.63 0.636 0.006c0.080 0 0.116 0.11 0.050 0.16l-0.51 0.394 0.19 0.634c0.026 0.080-0.064 0.148-0.13 0.1l-0.516-0.388-0.516 0.384c-0.066 0.050-0.156-0.016-0.13-0.1l0.19-0.632-0.51-0.394c-0.066-0.050-0.032-0.16 0.050-0.16l0.634-0.006 0.2-0.628c0.010-0.036 0.043-0.062 0.081-0.062s0.071 0.026 0.081 0.061l0 0.001zM3.080 8.060l0.2 0.63 0.636 0.006c0.080 0 0.116 0.11 0.050 0.16l-0.51 0.394 0.19 0.634c0.026 0.080-0.064 0.148-0.13 0.1l-0.516-0.388-0.516 0.384c-0.066 0.050-0.156-0.016-0.13-0.1l0.19-0.632-0.51-0.394c-0.066-0.050-0.032-0.16 0.050-0.16l0.634-0.006 0.2-0.628c0.010-0.036 0.043-0.062 0.081-0.062s0.071 0.026 0.081 0.061l0 0.001z"></path>
<path fill="#f5f5f5" style="fill: var(--color2, #f5f5f5)" d="M3.080 10.060l0.2 0.63 0.636 0.006c0.080 0 0.116 0.11 0.050 0.16l-0.51 0.394 0.19 0.634c0.026 0.080-0.064 0.148-0.13 0.1l-0.516-0.388-0.516 0.384c-0.066 0.050-0.156-0.016-0.13-0.1l0.19-0.632-0.51-0.394c-0.066-0.050-0.032-0.16 0.050-0.16l0.634-0.006 0.2-0.628c0.010-0.036 0.043-0.062 0.081-0.062s0.071 0.026 0.081 0.061l0 0.001zM3.080 14.060l0.2 0.63 0.636 0.006c0.080 0 0.116 0.11 0.050 0.16l-0.51 0.394 0.19 0.634c0.026 0.080-0.064 0.148-0.13 0.1l-0.516-0.388-0.516 0.384c-0.066 0.050-0.156-0.016-0.13-0.1l0.19-0.632-0.51-0.394c-0.066-0.050-0.032-0.16 0.050-0.16l0.634-0.006 0.2-0.628c0.010-0.036 0.043-0.062 0.081-0.062s0.071 0.026 0.081 0.061l0 0.001zM5.080 4.060l0.2 0.63 0.636 0.006c0.080 0 0.116 0.11 0.050 0.16l-0.51 0.394 0.19 0.634c0.026 0.080-0.064 0.148-0.13 0.1l-0.516-0.388-0.516 0.384c-0.066 0.050-0.156-0.016-0.13-0.1l0.19-0.632-0.51-0.394c-0.066-0.050-0.032-0.16 0.050-0.16l0.634-0.006 0.2-0.628c0.010-0.036 0.043-0.062 0.081-0.062s0.071 0.026 0.081 0.061l0 0.001z"></path>
<path fill="#f5f5f5" style="fill: var(--color2, #f5f5f5)" d="M5.080 6.060l0.2 0.63 0.636 0.006c0.080 0 0.116 0.11 0.050 0.16l-0.51 0.394 0.19 0.634c0.026 0.080-0.064 0.148-0.13 0.1l-0.516-0.388-0.516 0.384c-0.066 0.050-0.156-0.016-0.13-0.1l0.19-0.632-0.51-0.394c-0.066-0.050-0.032-0.16 0.050-0.16l0.634-0.006 0.2-0.628c0.010-0.036 0.043-0.062 0.081-0.062s0.071 0.026 0.081 0.061l0 0.001z"></path>
<path fill="#f5f5f5" style="fill: var(--color2, #f5f5f5)" d="M5.080 8.060l0.2 0.63 0.636 0.006c0.080 0 0.116 0.11 0.050 0.16l-0.51 0.394 0.19 0.634c0.026 0.080-0.064 0.148-0.13 0.1l-0.516-0.388-0.516 0.384c-0.066 0.050-0.156-0.016-0.13-0.1l0.19-0.632-0.51-0.394c-0.066-0.050-0.032-0.16 0.050-0.16l0.634-0.006 0.2-0.628c0.010-0.036 0.043-0.062 0.081-0.062s0.071 0.026 0.081 0.061l0 0.001zM5.080 12.060l0.2 0.63 0.636 0.006c0.080 0 0.116 0.11 0.050 0.16l-0.51 0.394 0.19 0.634c0.026 0.080-0.064 0.148-0.13 0.1l-0.516-0.388-0.516 0.384c-0.066 0.050-0.156-0.016-0.13-0.1l0.19-0.632-0.51-0.394c-0.066-0.050-0.032-0.16 0.050-0.16l0.634-0.006 0.2-0.628c0.010-0.036 0.043-0.062 0.081-0.062s0.071 0.026 0.081 0.061l0 0.001zM7.080 2.060l0.2 0.63 0.636 0.006c0.080 0 0.116 0.11 0.050 0.16l-0.51 0.394 0.19 0.634c0.026 0.080-0.064 0.148-0.13 0.1l-0.516-0.388-0.516 0.384c-0.066 0.050-0.156-0.016-0.13-0.1l0.19-0.632-0.51-0.394c-0.066-0.050-0.032-0.16 0.050-0.16l0.634-0.006 0.2-0.628c0.010-0.036 0.043-0.062 0.081-0.062s0.071 0.026 0.081 0.061l0 0.001z"></path>
<path fill="#f5f5f5" style="fill: var(--color2, #f5f5f5)" d="M7.080 4.060l0.2 0.63 0.636 0.006c0.080 0 0.116 0.11 0.050 0.16l-0.51 0.394 0.19 0.634c0.026 0.080-0.064 0.148-0.13 0.1l-0.516-0.388-0.516 0.384c-0.066 0.050-0.156-0.016-0.13-0.1l0.19-0.632-0.51-0.394c-0.066-0.050-0.032-0.16 0.050-0.16l0.634-0.006 0.2-0.628c0.010-0.036 0.043-0.062 0.081-0.062s0.071 0.026 0.081 0.061l0 0.001zM7.080 8.060l0.2 0.63 0.636 0.006c0.080 0 0.116 0.11 0.050 0.16l-0.51 0.394 0.19 0.634c0.026 0.080-0.064 0.148-0.13 0.1l-0.516-0.388-0.516 0.384c-0.066 0.050-0.156-0.016-0.13-0.1l0.19-0.632-0.51-0.394c-0.066-0.050-0.032-0.16 0.050-0.16l0.634-0.006 0.2-0.628c0.010-0.036 0.043-0.062 0.081-0.062s0.071 0.026 0.081 0.061l0 0.001z"></path>
<path fill="#f5f5f5" style="fill: var(--color2, #f5f5f5)" d="M7.080 10.060l0.2 0.63 0.636 0.006c0.080 0 0.116 0.11 0.050 0.16l-0.51 0.394 0.19 0.634c0.026 0.080-0.064 0.148-0.13 0.1l-0.516-0.388-0.516 0.384c-0.066 0.050-0.156-0.016-0.13-0.1l0.19-0.632-0.51-0.394c-0.066-0.050-0.032-0.16 0.050-0.16l0.634-0.006 0.2-0.628c0.010-0.036 0.043-0.062 0.081-0.062s0.071 0.026 0.081 0.061l0 0.001zM7.080 14.060l0.2 0.63 0.636 0.006c0.080 0 0.116 0.11 0.050 0.16l-0.51 0.394 0.19 0.634c0.026 0.080-0.064 0.148-0.13 0.1l-0.516-0.388-0.516 0.384c-0.066 0.050-0.156-0.016-0.13-0.1l0.19-0.632-0.51-0.394c-0.066-0.050-0.032-0.16 0.050-0.16l0.634-0.006 0.2-0.628c0.010-0.036 0.043-0.062 0.081-0.062s0.071 0.026 0.081 0.061l0 0.001zM9.080 4.060l0.2 0.63 0.636 0.006c0.080 0 0.116 0.11 0.050 0.16l-0.51 0.394 0.19 0.634c0.026 0.080-0.064 0.148-0.13 0.1l-0.516-0.388-0.516 0.384c-0.066 0.050-0.156-0.016-0.13-0.1l0.19-0.632-0.51-0.394c-0.066-0.050-0.032-0.16 0.050-0.16l0.634-0.006 0.2-0.628c0.010-0.036 0.043-0.062 0.081-0.062s0.071 0.026 0.081 0.061l0 0.001z"></path>
<path fill="#f5f5f5" style="fill: var(--color2, #f5f5f5)" d="M9.080 6.060l0.2 0.63 0.636 0.006c0.080 0 0.116 0.11 0.050 0.16l-0.51 0.394 0.19 0.634c0.026 0.080-0.064 0.148-0.13 0.1l-0.516-0.388-0.516 0.384c-0.066 0.050-0.156-0.016-0.13-0.1l0.19-0.632-0.51-0.394c-0.066-0.050-0.032-0.16 0.050-0.16l0.634-0.006 0.2-0.628c0.010-0.036 0.043-0.062 0.081-0.062s0.071 0.026 0.081 0.061l0 0.001z"></path>
<path fill="#f5f5f5" style="fill: var(--color2, #f5f5f5)" d="M9.080 8.060l0.2 0.63 0.636 0.006c0.080 0 0.116 0.11 0.050 0.16l-0.51 0.394 0.19 0.634c0.026 0.080-0.064 0.148-0.13 0.1l-0.516-0.388-0.516 0.384c-0.066 0.050-0.156-0.016-0.13-0.1l0.19-0.632-0.51-0.394c-0.066-0.050-0.032-0.16 0.050-0.16l0.634-0.006 0.2-0.628c0.010-0.036 0.043-0.062 0.081-0.062s0.071 0.026 0.081 0.061l0 0.001zM9.080 12.060l0.2 0.63 0.636 0.006c0.080 0 0.116 0.11 0.050 0.16l-0.51 0.394 0.19 0.634c0.026 0.080-0.064 0.148-0.13 0.1l-0.516-0.388-0.516 0.384c-0.066 0.050-0.156-0.016-0.13-0.1l0.19-0.632-0.51-0.394c-0.066-0.050-0.032-0.16 0.050-0.16l0.634-0.006 0.2-0.628c0.010-0.036 0.043-0.062 0.081-0.062s0.071 0.026 0.081 0.061l0 0.001zM11.080 2.060l0.2 0.63 0.636 0.006c0.080 0 0.116 0.11 0.050 0.16l-0.51 0.394 0.19 0.634c0.026 0.080-0.064 0.148-0.13 0.1l-0.516-0.388-0.516 0.384c-0.066 0.050-0.156-0.016-0.13-0.1l0.19-0.632-0.51-0.394c-0.066-0.050-0.032-0.16 0.050-0.16l0.634-0.006 0.2-0.628c0.010-0.036 0.043-0.062 0.081-0.062s0.071 0.026 0.081 0.061l0 0.001z"></path>
<path fill="#f5f5f5" style="fill: var(--color2, #f5f5f5)" d="M11.080 4.060l0.2 0.63 0.636 0.006c0.080 0 0.116 0.11 0.050 0.16l-0.51 0.394 0.19 0.634c0.026 0.080-0.064 0.148-0.13 0.1l-0.516-0.388-0.516 0.384c-0.066 0.050-0.156-0.016-0.13-0.1l0.19-0.632-0.51-0.394c-0.066-0.050-0.032-0.16 0.050-0.16l0.634-0.006 0.2-0.628c0.010-0.036 0.043-0.062 0.081-0.062s0.071 0.026 0.081 0.061l0 0.001zM11.080 8.060l0.2 0.63 0.636 0.006c0.080 0 0.116 0.11 0.050 0.16l-0.51 0.394 0.19 0.634c0.026 0.080-0.064 0.148-0.13 0.1l-0.516-0.388-0.516 0.384c-0.066 0.050-0.156-0.016-0.13-0.1l0.19-0.632-0.51-0.394c-0.066-0.050-0.032-0.16 0.050-0.16l0.634-0.006 0.2-0.628c0.010-0.036 0.043-0.062 0.081-0.062s0.071 0.026 0.081 0.061l0 0.001z"></path>
<path fill="#f5f5f5" style="fill: var(--color2, #f5f5f5)" d="M11.080 10.060l0.2 0.63 0.636 0.006c0.080 0 0.116 0.11 0.050 0.16l-0.51 0.394 0.19 0.634c0.026 0.080-0.064 0.148-0.13 0.1l-0.516-0.388-0.516 0.384c-0.066 0.050-0.156-0.016-0.13-0.1l0.19-0.632-0.51-0.394c-0.066-0.050-0.032-0.16 0.050-0.16l0.634-0.006 0.2-0.628c0.010-0.036 0.043-0.062 0.081-0.062s0.071 0.026 0.081 0.061l0 0.001zM11.080 14.060l0.2 0.63 0.636 0.006c0.080 0 0.116 0.11 0.050 0.16l-0.51 0.394 0.19 0.634c0.026 0.080-0.064 0.148-0.13 0.1l-0.516-0.388-0.516 0.384c-0.066 0.050-0.156-0.016-0.13-0.1l0.19-0.632-0.51-0.394c-0.066-0.050-0.032-0.16 0.050-0.16l0.634-0.006 0.2-0.628c0.010-0.036 0.043-0.062 0.081-0.062s0.071 0.026 0.081 0.061l0 0.001zM13.080 4.060l0.2 0.63 0.636 0.006c0.080 0 0.116 0.11 0.050 0.16l-0.51 0.394 0.19 0.634c0.026 0.080-0.064 0.148-0.13 0.1l-0.516-0.388-0.516 0.384c-0.066 0.050-0.156-0.016-0.13-0.1l0.19-0.632-0.51-0.394c-0.066-0.050-0.032-0.16 0.050-0.16l0.634-0.006 0.2-0.628c0.010-0.036 0.043-0.062 0.081-0.062s0.071 0.026 0.081 0.061l0 0.001z"></path>
<path fill="#f5f5f5" style="fill: var(--color2, #f5f5f5)" d="M13.080 6.060l0.2 0.63 0.636 0.006c0.080 0 0.116 0.11 0.050 0.16l-0.51 0.394 0.19 0.634c0.026 0.080-0.064 0.148-0.13 0.1l-0.516-0.388-0.516 0.384c-0.066 0.050-0.156-0.016-0.13-0.1l0.19-0.632-0.51-0.394c-0.066-0.050-0.032-0.16 0.050-0.16l0.634-0.006 0.2-0.628c0.010-0.036 0.043-0.062 0.081-0.062s0.071 0.026 0.081 0.061l0 0.001z"></path>
<path fill="#f5f5f5" style="fill: var(--color2, #f5f5f5)" d="M13.080 8.060l0.2 0.63 0.636 0.006c0.080 0 0.116 0.11 0.050 0.16l-0.51 0.394 0.19 0.634c0.026 0.080-0.064 0.148-0.13 0.1l-0.516-0.388-0.516 0.384c-0.066 0.050-0.156-0.016-0.13-0.1l0.19-0.632-0.51-0.394c-0.066-0.050-0.032-0.16 0.050-0.16l0.634-0.006 0.2-0.628c0.010-0.036 0.043-0.062 0.081-0.062s0.071 0.026 0.081 0.061l0 0.001zM13.080 12.060l0.2 0.63 0.636 0.006c0.080 0 0.116 0.11 0.050 0.16l-0.51 0.394 0.19 0.634c0.026 0.080-0.064 0.148-0.13 0.1l-0.516-0.388-0.516 0.384c-0.066 0.050-0.156-0.016-0.13-0.1l0.19-0.632-0.51-0.394c-0.066-0.050-0.032-0.16 0.050-0.16l0.634-0.006 0.2-0.628c0.010-0.036 0.043-0.062 0.081-0.062s0.071 0.026 0.081 0.061l0 0.001zM15.080 2.060l0.2 0.63 0.636 0.006c0.080 0 0.116 0.11 0.050 0.16l-0.51 0.394 0.19 0.634c0.026 0.080-0.064 0.148-0.13 0.1l-0.516-0.388-0.516 0.384c-0.066 0.050-0.156-0.016-0.13-0.1l0.19-0.632-0.51-0.394c-0.066-0.050-0.032-0.16 0.050-0.16l0.634-0.006 0.2-0.628c0.010-0.036 0.043-0.062 0.081-0.062s0.071 0.026 0.081 0.061l0 0.001z"></path>
<path fill="#f5f5f5" style="fill: var(--color2, #f5f5f5)" d="M15.080 4.060l0.2 0.63 0.636 0.006c0.080 0 0.116 0.11 0.050 0.16l-0.51 0.394 0.19 0.634c0.026 0.080-0.064 0.148-0.13 0.1l-0.516-0.388-0.516 0.384c-0.066 0.050-0.156-0.016-0.13-0.1l0.19-0.632-0.51-0.394c-0.066-0.050-0.032-0.16 0.050-0.16l0.634-0.006 0.2-0.628c0.010-0.036 0.043-0.062 0.081-0.062s0.071 0.026 0.081 0.061l0 0.001zM15.080 8.060l0.2 0.63 0.636 0.006c0.080 0 0.116 0.11 0.050 0.16l-0.51 0.394 0.19 0.634c0.026 0.080-0.064 0.148-0.13 0.1l-0.516-0.388-0.516 0.384c-0.066 0.050-0.156-0.016-0.13-0.1l0.19-0.632-0.51-0.394c-0.066-0.050-0.032-0.16 0.050-0.16l0.634-0.006 0.2-0.628c0.010-0.036 0.043-0.062 0.081-0.062s0.071 0.026 0.081 0.061l0 0.001z"></path>
<path fill="#f5f5f5" style="fill: var(--color2, #f5f5f5)" d="M15.080 10.060l0.2 0.63 0.636 0.006c0.080 0 0.116 0.11 0.050 0.16l-0.51 0.394 0.19 0.634c0.026 0.080-0.064 0.148-0.13 0.1l-0.516-0.388-0.516 0.384c-0.066 0.050-0.156-0.016-0.13-0.1l0.19-0.632-0.51-0.394c-0.066-0.050-0.032-0.16 0.050-0.16l0.634-0.006 0.2-0.628c0.010-0.036 0.043-0.062 0.081-0.062s0.071 0.026 0.081 0.061l0 0.001zM15.080 14.060l0.2 0.63 0.636 0.006c0.080 0 0.116 0.11 0.050 0.16l-0.51 0.394 0.19 0.634c0.026 0.080-0.064 0.148-0.13 0.1l-0.516-0.388-0.516 0.384c-0.066 0.050-0.156-0.016-0.13-0.1l0.19-0.632-0.51-0.394c-0.066-0.050-0.032-0.16 0.050-0.16l0.634-0.006 0.2-0.628c0.010-0.036 0.043-0.062 0.081-0.062s0.071 0.026 0.081 0.061l0 0.001zM17.080 4.060l0.2 0.63 0.636 0.006c0.080 0 0.116 0.11 0.050 0.16l-0.51 0.394 0.19 0.634c0.026 0.080-0.064 0.148-0.13 0.1l-0.516-0.388-0.516 0.384c-0.066 0.050-0.156-0.016-0.13-0.1l0.19-0.632-0.51-0.394c-0.066-0.050-0.032-0.16 0.050-0.16l0.634-0.006 0.2-0.628c0.010-0.036 0.043-0.062 0.081-0.062s0.071 0.026 0.081 0.061l0 0.001z"></path>
<path fill="#f5f5f5" style="fill: var(--color2, #f5f5f5)" d="M17.080 6.060l0.2 0.63 0.636 0.006c0.080 0 0.116 0.11 0.050 0.16l-0.51 0.394 0.19 0.634c0.026 0.080-0.064 0.148-0.13 0.1l-0.516-0.388-0.516 0.384c-0.066 0.050-0.156-0.016-0.13-0.1l0.19-0.632-0.51-0.394c-0.066-0.050-0.032-0.16 0.050-0.16l0.634-0.006 0.2-0.628c0.010-0.036 0.043-0.062 0.081-0.062s0.071 0.026 0.081 0.061l0 0.001z"></path>
<path fill="#f5f5f5" style="fill: var(--color2, #f5f5f5)" d="M17.080 8.060l0.2 0.63 0.636 0.006c0.080 0 0.116 0.11 0.050 0.16l-0.51 0.394 0.19 0.634c0.026 0.080-0.064 0.148-0.13 0.1l-0.516-0.388-0.516 0.384c-0.066 0.050-0.156-0.016-0.13-0.1l0.19-0.632-0.51-0.394c-0.066-0.050-0.032-0.16 0.050-0.16l0.634-0.006 0.2-0.628c0.010-0.036 0.043-0.062 0.081-0.062s0.071 0.026 0.081 0.061l0 0.001zM17.080 12.060l0.2 0.63 0.636 0.006c0.080 0 0.116 0.11 0.050 0.16l-0.51 0.394 0.19 0.634c0.026 0.080-0.064 0.148-0.13 0.1l-0.516-0.388-0.516 0.384c-0.066 0.050-0.156-0.016-0.13-0.1l0.19-0.632-0.51-0.394c-0.066-0.050-0.032-0.16 0.050-0.16l0.634-0.006 0.2-0.628c0.010-0.036 0.043-0.062 0.081-0.062s0.071 0.026 0.081 0.061l0 0.001zM19.080 2.060l0.2 0.63 0.636 0.006c0.080 0 0.116 0.11 0.050 0.16l-0.51 0.394 0.19 0.634c0.026 0.080-0.064 0.148-0.13 0.1l-0.516-0.388-0.516 0.384c-0.066 0.050-0.156-0.016-0.13-0.1l0.19-0.632-0.51-0.394c-0.066-0.050-0.032-0.16 0.050-0.16l0.634-0.006 0.2-0.628c0.010-0.036 0.043-0.062 0.081-0.062s0.071 0.026 0.081 0.061l0 0.001z"></path>
<path fill="#f5f5f5" style="fill: var(--color2, #f5f5f5)" d="M19.080 4.060l0.2 0.63 0.636 0.006c0.080 0 0.116 0.11 0.050 0.16l-0.51 0.394 0.19 0.634c0.026 0.080-0.064 0.148-0.13 0.1l-0.516-0.388-0.516 0.384c-0.066 0.050-0.156-0.016-0.13-0.1l0.19-0.632-0.51-0.394c-0.066-0.050-0.032-0.16 0.050-0.16l0.634-0.006 0.2-0.628c0.010-0.036 0.043-0.062 0.081-0.062s0.071 0.026 0.081 0.061l0 0.001zM19.080 8.060l0.2 0.63 0.636 0.006c0.080 0 0.116 0.11 0.050 0.16l-0.51 0.394 0.19 0.634c0.026 0.080-0.064 0.148-0.13 0.1l-0.516-0.388-0.516 0.384c-0.066 0.050-0.156-0.016-0.13-0.1l0.19-0.632-0.51-0.394c-0.066-0.050-0.032-0.16 0.050-0.16l0.634-0.006 0.2-0.628c0.010-0.036 0.043-0.062 0.081-0.062s0.071 0.026 0.081 0.061l0 0.001z"></path>
<path fill="#f5f5f5" style="fill: var(--color2, #f5f5f5)" d="M19.080 10.060l0.2 0.63 0.636 0.006c0.080 0 0.116 0.11 0.050 0.16l-0.51 0.394 0.19 0.634c0.026 0.080-0.064 0.148-0.13 0.1l-0.516-0.388-0.516 0.384c-0.066 0.050-0.156-0.016-0.13-0.1l0.19-0.632-0.51-0.394c-0.066-0.050-0.032-0.16 0.050-0.16l0.634-0.006 0.2-0.628c0.010-0.036 0.043-0.062 0.081-0.062s0.071 0.026 0.081 0.061l0 0.001zM19.080 14.060l0.2 0.63 0.636 0.006c0.080 0 0.116 0.11 0.050 0.16l-0.51 0.394 0.19 0.634c0.026 0.080-0.064 0.148-0.13 0.1l-0.516-0.388-0.516 0.384c-0.066 0.050-0.156-0.016-0.13-0.1l0.19-0.632-0.51-0.394c-0.066-0.050-0.032-0.16 0.050-0.16l0.634-0.006 0.2-0.628c0.010-0.036 0.043-0.062 0.081-0.062s0.071 0.026 0.081 0.061l0 0.001z"></path>
</symbol>
<symbol id="icon-heart-regular" viewBox="0 0 32 32">
<path d="M15.25 5.25l0.694 0.75 0.75-0.749c2.094-2.041 4.994-2.969 7.844-2.495 4.306 0.718 7.462 4.444 7.462 8.813v0.363c0 2.594-1.075 5.075-2.975 6.844l-11.294 10.544c-0.469 0.438-1.087 0.681-1.731 0.681s-1.262-0.244-1.731-0.681l-11.294-10.544c-1.897-1.769-2.974-4.25-2.974-6.844v-0.363c0-4.369 3.158-8.095 7.463-8.813 2.794-0.474 5.75 0.454 7.787 2.494-0.056 0 0 0.001 0 0v0zM15.944 10.244l-2.813-2.925c-1.356-1.301-3.281-1.919-5.175-1.604-2.859 0.477-4.956 2.954-4.956 5.854v0.363c0 1.762 0.732 3.45 2.021 4.65l10.979 10.25 10.981-10.25c1.288-1.2 2.019-2.887 2.019-4.65v-0.363c0-2.9-2.1-5.377-4.956-5.854-1.894-0.315-3.819 0.303-5.175 1.604l-2.925 2.925z"></path>
</symbol>
<symbol id="icon-instagram" viewBox="0 0 28 32">
<path d="M14.006 8.813c-3.975 0-7.181 3.206-7.181 7.181s3.206 7.181 7.181 7.181 7.181-3.206 7.181-7.181-3.206-7.181-7.181-7.181zM14.006 20.663c-2.569 0-4.669-2.094-4.669-4.669s2.094-4.669 4.669-4.669 4.669 2.094 4.669 4.669-2.1 4.669-4.669 4.669zM23.156 8.519c0 0.931-0.75 1.675-1.675 1.675-0.931 0-1.675-0.75-1.675-1.675s0.75-1.675 1.675-1.675 1.675 0.75 1.675 1.675zM27.913 10.219c-0.106-2.244-0.619-4.231-2.262-5.869-1.637-1.638-3.625-2.15-5.869-2.263-2.313-0.131-9.244-0.131-11.556 0-2.237 0.106-4.225 0.619-5.869 2.256s-2.15 3.625-2.263 5.869c-0.131 2.313-0.131 9.244 0 11.556 0.106 2.244 0.619 4.231 2.263 5.869s3.625 2.15 5.869 2.262c2.313 0.131 9.244 0.131 11.556 0 2.244-0.106 4.231-0.619 5.869-2.262 1.637-1.637 2.15-3.625 2.262-5.869 0.131-2.313 0.131-9.238 0-11.55zM24.925 24.25c-0.488 1.225-1.431 2.169-2.663 2.663-1.844 0.731-6.219 0.563-8.256 0.563s-6.419 0.163-8.256-0.563c-1.225-0.488-2.169-1.431-2.663-2.663-0.731-1.844-0.563-6.219-0.563-8.256s-0.163-6.419 0.563-8.256c0.487-1.225 1.431-2.169 2.663-2.662 1.844-0.731 6.219-0.563 8.256-0.563s6.419-0.162 8.256 0.563c1.225 0.487 2.169 1.431 2.663 2.662 0.731 1.844 0.563 6.219 0.563 8.256s0.169 6.419-0.563 8.256z"></path>
</symbol>
<symbol id="icon-linkedin-in" viewBox="0 0 28 32">
<path d="M6.268 28h-5.805v-18.694h5.805zM3.362 6.756c-1.856 0-3.362-1.537-3.362-3.394s1.505-3.362 3.362-3.362 3.362 1.505 3.362 3.362v0c0 1.856-1.506 3.394-3.362 3.394zM27.994 28h-5.793v-9.1c0-2.169-0.044-4.95-3.018-4.95-3.018 0-3.481 2.356-3.481 4.794v9.256h-5.799v-18.694h5.568v2.55h0.081c0.775-1.469 2.668-3.019 5.492-3.019 5.875 0 6.955 3.869 6.955 8.894v10.269z"></path>
</symbol>
<symbol id="icon-location-arrow-solid" viewBox="0 0 28 32">
<path d="M26.85 5.756c0.306-0.744 0.131-1.6-0.438-2.169s-1.425-0.744-2.169-0.438l-22 9c-0.887 0.363-1.387 1.3-1.206 2.238s1.006 1.613 1.962 1.613h11v11c0 0.956 0.675 1.775 1.613 1.962s1.875-0.319 2.237-1.206l9-22z"></path>
</symbol>
<symbol id="icon-location-dot-solid" viewBox="0 0 24 32">
<path d="M13.481 31.2c3.206-4.012 10.519-13.738 10.519-19.2 0-6.625-5.375-12-12-12s-12 5.375-12 12c0 5.462 7.313 15.188 10.519 19.2 0.769 0.956 2.194 0.956 2.963 0zM12 16c-2.206 0-4-1.794-4-4s1.794-4 4-4 4 1.794 4 4-1.794 4-4 4z"></path>
</symbol>
<symbol id="icon-menu" viewBox="0 0 28 32">
<path d="M0 6c0-1.106 0.894-2 2-2h24c1.106 0 2 0.894 2 2s-0.894 2-2 2h-24c-1.106 0-2-0.894-2-2zM0 16c0-1.106 0.894-2 2-2h24c1.106 0 2 0.894 2 2s-0.894 2-2 2h-24c-1.106 0-2-0.894-2-2zM28 26c0 1.106-0.894 2-2 2h-24c-1.106 0-2-0.894-2-2s0.894-2 2-2h24c1.106 0 2 0.894 2 2z"></path>
</symbol>
<symbol id="icon-paper-plane-regular" viewBox="0 0 32 32">
<path d="M31.35 0.262c-0.475-0.322-1.088-0.35-1.59-0.066l-29.003 16.499c-0.496 0.288-0.789 0.825-0.755 1.394 0.034 0.57 0.39 1.073 0.916 1.293l9.581 4.024v7.094c0 0.549 0.3 1.052 0.781 1.316 0.225 0.123 0.469 0.186 0.662 0.186 0.282 0 0.565-0.080 0.812-0.238l6.95-4.466 6.16 2.587c0.186 0.078 0.384 0.117 0.581 0.117 0.255 0 0.509-0.064 0.736-0.193 0.403-0.227 0.68-0.629 0.747-1.086l4-27c0.139-0.568-0.111-1.135-0.58-1.459zM23.081 7.45l-11.694 13.056-6.498-2.712 18.192-10.344zM13.444 27.75v-3.085l2.903 1.219-2.903 1.866zM25.3 26.369l-11.037-4.637 14.037-15.594-3 20.231z"></path>
</symbol>
<symbol id="icon-phone-solid" viewBox="0 0 32 32">
<path d="M10.306 1.538c-0.481-1.163-1.75-1.781-2.963-1.45l-5.5 1.5c-1.087 0.3-1.844 1.287-1.844 2.412 0 15.462 12.537 28 28 28 1.125 0 2.113-0.756 2.413-1.844l1.5-5.5c0.331-1.212-0.288-2.481-1.45-2.962l-6-2.5c-1.019-0.425-2.2-0.131-2.894 0.725l-2.525 3.081c-4.4-2.081-7.963-5.644-10.044-10.044l3.081-2.519c0.856-0.7 1.15-1.875 0.725-2.894l-2.5-6z"></path>
</symbol>
<symbol id="icon-pinterest-p" viewBox="0 0 24 32">
<path d="M12.75 0.406c-6.412 0-12.75 4.275-12.75 11.194 0 4.4 2.475 6.9 3.975 6.9 0.619 0 0.975-1.725 0.975-2.212 0-0.581-1.481-1.819-1.481-4.238 0-5.025 3.825-8.588 8.775-8.588 4.256 0 7.406 2.419 7.406 6.862 0 3.319-1.331 9.544-5.644 9.544-1.556 0-2.887-1.125-2.887-2.738 0-2.363 1.65-4.65 1.65-7.088 0-4.138-5.869-3.388-5.869 1.613 0 1.050 0.131 2.213 0.6 3.169-0.862 3.712-2.625 9.244-2.625 13.069 0 1.181 0.169 2.344 0.281 3.525 0.213 0.238 0.106 0.212 0.431 0.094 3.15-4.313 3.037-5.156 4.463-10.8 0.769 1.462 2.756 2.25 4.331 2.25 6.637 0 9.619-6.469 9.619-12.3 0-6.206-5.363-10.256-11.25-10.256z"></path>
</symbol>
<symbol id="icon-ruler-combined-solid" viewBox="0 0 32 32">
<path d="M0.013 29.306c0.156 1.512 1.431 2.694 2.987 2.694h26c1.656 0 3-1.344 3-3v-6c0-1.656-1.344-3-3-3h-3v5c0 0.55-0.45 1-1 1s-1-0.45-1-1v-5h-4v5c0 0.55-0.45 1-1 1s-1-0.45-1-1v-5h-4v5c0 0.55-0.45 1-1 1s-1-0.45-1-1v-5h-5c-0.55 0-1-0.45-1-1s0.45-1 1-1h5v-4h-5c-0.55 0-1-0.45-1-1s0.45-1 1-1h5v-4h-5c-0.55 0-1-0.45-1-1s0.45-1 1-1h5v-3c0-1.656-1.344-3-3-3h-6c-1.656 0-3 1.344-3 3v26c0 0.106 0.006 0.206 0.013 0.306z"></path>
</symbol>
<symbol id="icon-star-solid" viewBox="0 0 36 32">
<path d="M19.806 1.125c-0.331-0.688-1.031-1.125-1.8-1.125s-1.462 0.438-1.8 1.125l-4.019 8.269-8.975 1.325c-0.75 0.113-1.375 0.637-1.606 1.356s-0.044 1.512 0.494 2.044l6.513 6.444-1.537 9.106c-0.125 0.75 0.188 1.512 0.806 1.956s1.438 0.5 2.113 0.144l8.019-4.281 8.019 4.281c0.675 0.356 1.494 0.306 2.113-0.144s0.931-1.206 0.806-1.956l-1.544-9.106 6.513-6.444c0.538-0.531 0.731-1.325 0.494-2.044s-0.856-1.244-1.606-1.356l-8.981-1.325-4.019-8.269z"></path>
</symbol>
<symbol id="icon-twitter" viewBox="0 0 32 32">
<path d="M28.711 9.482c0.020 0.284 0.020 0.569 0.020 0.853 0 8.67-6.599 18.66-18.66 18.66-3.716 0-7.168-1.076-10.071-2.944 0.528 0.061 1.036 0.081 1.584 0.081 3.066 0 5.888-1.035 8.142-2.802-2.883-0.061-5.3-1.949-6.132-4.548 0.406 0.061 0.812 0.102 1.239 0.102 0.589 0 1.178-0.081 1.726-0.223-3.005-0.609-5.259-3.249-5.259-6.437v-0.081c0.873 0.487 1.888 0.792 2.964 0.832-1.766-1.178-2.924-3.188-2.924-5.462 0-1.218 0.325-2.335 0.893-3.31 3.228 3.98 8.081 6.579 13.523 6.863-0.101-0.487-0.162-0.995-0.162-1.502 0-3.614 2.924-6.558 6.558-6.558 1.888 0 3.594 0.792 4.792 2.071 1.482-0.284 2.904-0.832 4.162-1.584-0.487 1.523-1.523 2.802-2.883 3.614 1.32-0.142 2.599-0.508 3.777-1.015-0.893 1.299-2.010 2.457-3.289 3.391z"></path>
</symbol>
<symbol id="icon-verified-icon" viewBox="0 0 27 32">
<path fill="#00c9a7" style="fill: var(--color5, #00c9a7)" d="M0.15 5.002c5.539 0 9.782-1.563 13.363-5.002 3.589 3.439 7.832 5.002 13.361 5.002 0 8.957 1.883 21.784-13.361 26.998-15.245-5.214-13.363-18.041-13.363-26.998z"></path>
<path fill="#02ad8c" style="fill: var(--color6, #02ad8c)" d="M0.15 5.002c5.519 0 9.747-1.563 13.315-5.002v32c-15.192-5.214-13.315-18.041-13.315-26.998z"></path>
<path fill="#f1f1f2" style="fill: var(--color7, #f1f1f2)" d="M17.058 23.579l6.521-6.339-3.592-3.49-2.931 2.846-8.409-8.175-3.594 3.491z"></path>
<path fill="#e6e6e6" style="fill: var(--color8, #e6e6e6)" d="M13.474 20.211l-8.421-8.478 3.289-3.311 5.132 5.167z"></path>
</symbol>

<symbol id="icon-circle-play" viewBox="0 0 512 512">
    <path
        d="M188.3 147.1C195.8 142.8 205.1 142.1 212.5 147.5L356.5 235.5C363.6 239.9 368 247.6 368 256C368 264.4 363.6 272.1 356.5 276.5L212.5 364.5C205.1 369 195.8 369.2 188.3 364.9C180.7 360.7 176 352.7 176 344V167.1C176 159.3 180.7 151.3 188.3 147.1V147.1zM512 256C512 397.4 397.4 512 256 512C114.6 512 0 397.4 0 256C0 114.6 114.6 0 256 0C397.4 0 512 114.6 512 256zM256 48C141.1 48 48 141.1 48 256C48 370.9 141.1 464 256 464C370.9 464 464 370.9 464 256C464 141.1 370.9 48 256 48z" />
</symbol>
</defs>
</svg>
